<svg width="1032" height="189" viewBox="0 0 1032 189" fill="none" xmlns="http://www.w3.org/2000/svg">
<g filter="url(#filter0_d_2120_33)">
<path d="M56 52H523V69C523 102.137 496.137 129 463 129H116C82.8629 129 56 102.137 56 69V52Z" fill="white"/>
<path d="M57.5 53.5H521.5V69C521.5 101.309 495.309 127.5 463 127.5H116C83.6913 127.5 57.5 101.309 57.5 69V53.5Z" stroke="#C9B079" stroke-width="3"/>
</g>
<g filter="url(#filter1_d_2120_33)">
<path d="M402 52H976V69C976 102.137 949.137 129 916 129H462C428.863 129 402 102.137 402 69V52Z" fill="#BF8B70"/>
<path d="M403.5 53.5H974.5V69C974.5 101.309 948.309 127.5 916 127.5H462C429.691 127.5 403.5 101.309 403.5 69V53.5Z" stroke="#BAA370" stroke-width="3"/>
</g>
<path d="M116.303 79.96H113.711C113.711 80.44 113.735 80.872 113.783 81.256C113.847 81.64 113.911 82.032 113.975 82.432C114.055 82.832 114.119 83.296 114.167 83.824C114.215 84.352 114.239 85 114.239 85.768H115.775C115.775 85 115.799 84.352 115.847 83.824C115.895 83.296 115.959 82.832 116.039 82.432C116.119 82.016 116.183 81.624 116.231 81.256C116.279 80.872 116.303 80.44 116.303 79.96ZM119.879 79.96H117.287C117.287 80.44 117.311 80.872 117.359 81.256C117.423 81.64 117.487 82.032 117.551 82.432C117.631 82.832 117.695 83.296 117.743 83.824C117.791 84.352 117.815 85 117.815 85.768H119.351C119.351 85 119.375 84.352 119.423 83.824C119.471 83.296 119.535 82.832 119.615 82.432C119.695 82.016 119.759 81.624 119.807 81.256C119.855 80.872 119.879 80.44 119.879 79.96ZM135.683 91.72V97H122.483V95.728H122.747C123.275 95.728 123.707 95.672 124.043 95.56C124.395 95.448 124.571 95.216 124.571 94.864V82.096C124.571 81.744 124.395 81.512 124.043 81.4C123.707 81.288 123.275 81.232 122.747 81.232H122.483V79.96H134.987V84.64H133.427L133.211 82.552C133.179 82.264 133.059 82.048 132.851 81.904C132.659 81.744 132.355 81.64 131.939 81.592C131.539 81.544 131.027 81.52 130.403 81.52H127.595V95.44H130.931C131.427 95.44 131.859 95.432 132.227 95.416C132.595 95.384 132.891 95.328 133.115 95.248C133.355 95.168 133.531 95.064 133.643 94.936C133.771 94.792 133.843 94.616 133.859 94.408L134.099 91.72H135.683ZM126.899 87.592C127.555 87.56 128.203 87.536 128.843 87.52C129.499 87.488 130.147 87.464 130.787 87.448C131.427 87.416 132.059 87.384 132.683 87.352V89.224C132.059 89.176 131.427 89.144 130.787 89.128C130.147 89.096 129.499 89.064 128.843 89.032C128.203 89 127.555 88.976 126.899 88.96V87.592ZM144.863 95.704C145.519 95.704 146.087 95.568 146.567 95.296C147.047 95.024 147.455 94.696 147.791 94.312C148.143 93.912 148.439 93.528 148.679 93.16L149.879 94.168C149.527 94.744 149.111 95.264 148.631 95.728C148.151 96.192 147.575 96.56 146.903 96.832C146.247 97.104 145.471 97.24 144.575 97.24C143.279 97.24 142.135 96.976 141.143 96.448C140.167 95.904 139.407 95.16 138.863 94.216C138.319 93.256 138.047 92.144 138.047 90.88C138.047 89.6 138.327 88.488 138.887 87.544C139.463 86.6 140.255 85.864 141.263 85.336C142.271 84.792 143.447 84.52 144.791 84.52C145.639 84.52 146.383 84.616 147.023 84.808C147.663 84.984 148.199 85.192 148.631 85.432C149.079 85.656 149.407 85.864 149.615 86.056V89.104H147.095V86.272C147.287 86.304 147.447 86.368 147.575 86.464C147.719 86.544 147.831 86.648 147.911 86.776C148.007 86.904 148.063 87.048 148.079 87.208C148.095 87.352 148.079 87.512 148.031 87.688C147.775 87.224 147.359 86.84 146.783 86.536C146.207 86.216 145.567 86.056 144.863 86.056C144.031 86.056 143.327 86.264 142.751 86.68C142.191 87.08 141.767 87.648 141.479 88.384C141.191 89.104 141.047 89.936 141.047 90.88C141.047 91.616 141.135 92.28 141.311 92.872C141.487 93.448 141.735 93.952 142.055 94.384C142.375 94.8 142.767 95.128 143.23 95.368C143.711 95.592 144.255 95.704 144.863 95.704ZM158.386 95.704C159.042 95.704 159.61 95.568 160.09 95.296C160.57 95.024 160.978 94.696 161.314 94.312C161.666 93.912 161.962 93.528 162.202 93.16L163.402 94.168C163.05 94.744 162.634 95.264 162.154 95.728C161.674 96.192 161.098 96.56 160.426 96.832C159.77 97.104 158.994 97.24 158.098 97.24C156.802 97.24 155.658 96.976 154.666 96.448C153.69 95.904 152.93 95.16 152.386 94.216C151.842 93.256 151.57 92.144 151.57 90.88C151.57 89.6 151.85 88.488 152.41 87.544C152.986 86.6 153.778 85.864 154.786 85.336C155.794 84.792 156.97 84.52 158.314 84.52C159.162 84.52 159.906 84.616 160.546 84.808C161.186 84.984 161.722 85.192 162.154 85.432C162.602 85.656 162.93 85.864 163.138 86.056V89.104H160.618V86.272C160.81 86.304 160.97 86.368 161.098 86.464C161.242 86.544 161.354 86.648 161.434 86.776C161.53 86.904 161.586 87.048 161.602 87.208C161.618 87.352 161.602 87.512 161.554 87.688C161.298 87.224 160.882 86.84 160.306 86.536C159.73 86.216 159.09 86.056 158.386 86.056C157.554 86.056 156.85 86.264 156.274 86.68C155.714 87.08 155.29 87.648 155.002 88.384C154.714 89.104 154.57 89.936 154.57 90.88C154.57 91.616 154.658 92.28 154.834 92.872C155.01 93.448 155.258 93.952 155.578 94.384C155.898 94.8 156.29 95.128 156.754 95.368C157.234 95.592 157.778 95.704 158.386 95.704ZM178.101 90.88C178.101 92.128 177.829 93.232 177.285 94.192C176.741 95.152 175.981 95.904 175.005 96.448C174.029 96.976 172.893 97.24 171.597 97.24C170.317 97.24 169.189 96.976 168.213 96.448C167.237 95.904 166.469 95.152 165.909 94.192C165.365 93.232 165.093 92.128 165.093 90.88C165.093 89.952 165.245 89.104 165.549 88.336C165.869 87.552 166.317 86.88 166.893 86.32C167.485 85.744 168.173 85.304 168.957 85C169.757 84.68 170.637 84.52 171.597 84.52C172.557 84.52 173.429 84.68 174.213 85C175.013 85.304 175.701 85.744 176.277 86.32C176.869 86.88 177.317 87.552 177.621 88.336C177.941 89.104 178.101 89.952 178.101 90.88ZM168.093 90.88C168.093 91.872 168.237 92.736 168.525 93.472C168.813 94.192 169.213 94.752 169.725 95.152C170.253 95.536 170.877 95.728 171.597 95.728C172.333 95.728 172.957 95.536 173.469 95.152C173.997 94.752 174.397 94.192 174.669 93.472C174.957 92.736 175.101 91.872 175.101 90.88C175.101 89.872 174.957 89.008 174.669 88.288C174.397 87.568 173.997 87.016 173.469 86.632C172.957 86.248 172.333 86.056 171.597 86.056C170.877 86.056 170.253 86.248 169.725 86.632C169.213 87.016 168.813 87.568 168.525 88.288C168.237 89.008 168.093 89.872 168.093 90.88ZM193.437 79.96H186.093V81.232H186.357C186.885 81.232 187.317 81.288 187.653 81.4C188.005 81.512 188.181 81.744 188.181 82.096V94.864C188.181 95.216 188.005 95.448 187.653 95.56C187.317 95.672 186.885 95.728 186.357 95.728H186.093V97H199.173V91.504H197.517L197.301 94.408C197.285 94.696 197.165 94.912 196.941 95.056C196.733 95.2 196.421 95.304 196.005 95.368C195.589 95.416 195.045 95.44 194.373 95.44H191.229V82.096C191.229 81.744 191.405 81.512 191.757 81.4C192.125 81.288 192.589 81.232 193.149 81.232H193.437V79.96ZM202.154 79.96H199.562C199.562 80.44 199.586 80.872 199.634 81.256C199.698 81.64 199.762 82.032 199.826 82.432C199.906 82.832 199.97 83.296 200.018 83.824C200.066 84.352 200.09 85 200.09 85.768H201.626C201.626 85 201.65 84.352 201.698 83.824C201.746 83.296 201.81 82.832 201.89 82.432C201.97 82.016 202.034 81.624 202.082 81.256C202.13 80.872 202.154 80.44 202.154 79.96ZM216.328 90.88C216.328 92.128 216.056 93.232 215.512 94.192C214.968 95.152 214.208 95.904 213.232 96.448C212.256 96.976 211.12 97.24 209.824 97.24C208.544 97.24 207.416 96.976 206.44 96.448C205.464 95.904 204.696 95.152 204.136 94.192C203.592 93.232 203.32 92.128 203.32 90.88C203.32 89.952 203.472 89.104 203.776 88.336C204.096 87.552 204.544 86.88 205.12 86.32C205.712 85.744 206.4 85.304 207.184 85C207.984 84.68 208.864 84.52 209.824 84.52C210.784 84.52 211.656 84.68 212.44 85C213.24 85.304 213.928 85.744 214.504 86.32C215.096 86.88 215.544 87.552 215.848 88.336C216.168 89.104 216.328 89.952 216.328 90.88ZM206.32 90.88C206.32 91.872 206.464 92.736 206.752 93.472C207.04 94.192 207.44 94.752 207.952 95.152C208.48 95.536 209.104 95.728 209.824 95.728C210.56 95.728 211.184 95.536 211.696 95.152C212.224 94.752 212.624 94.192 212.896 93.472C213.184 92.736 213.328 91.872 213.328 90.88C213.328 89.872 213.184 89.008 212.896 88.288C212.624 87.568 212.224 87.016 211.696 86.632C211.184 86.248 210.56 86.056 209.824 86.056C209.104 86.056 208.48 86.248 207.952 86.632C207.44 87.016 207.04 87.568 206.752 88.288C206.464 89.008 206.32 89.872 206.32 90.88ZM217.845 84.76H226.629V86.248H217.845V84.76ZM226.029 84.76H234.621V86.248H226.029V84.76ZM228.357 95.536V83.44C228.357 82.304 228.589 81.416 229.053 80.776C229.533 80.12 230.149 79.656 230.901 79.384C231.669 79.112 232.477 78.976 233.325 78.976C233.741 78.976 234.141 79 234.525 79.048C234.909 79.08 235.205 79.136 235.413 79.216V80.848C235.269 80.784 235.101 80.728 234.909 80.68C234.717 80.616 234.509 80.568 234.285 80.536C234.077 80.504 233.845 80.488 233.589 80.488C233.141 80.488 232.733 80.568 232.365 80.728C232.013 80.872 231.733 81.16 231.525 81.592C231.333 82.008 231.237 82.6 231.237 83.368V95.536C231.237 95.6 231.325 95.656 231.501 95.704C231.693 95.736 231.949 95.76 232.269 95.776C232.589 95.776 232.941 95.776 233.325 95.776H233.637V97H226.317V95.776H226.533C226.901 95.776 227.221 95.768 227.493 95.752C227.765 95.736 227.973 95.712 228.117 95.68C228.277 95.632 228.357 95.584 228.357 95.536ZM223.053 95.536C223.053 95.6 223.125 95.656 223.269 95.704C223.429 95.736 223.637 95.76 223.893 95.776C224.149 95.776 224.437 95.776 224.757 95.776H224.829V97H218.013V95.776H218.277C218.869 95.776 219.333 95.72 219.669 95.608C220.005 95.496 220.173 95.28 220.173 94.96V83.752C220.173 82.616 220.397 81.728 220.845 81.088C221.293 80.432 221.869 79.968 222.573 79.696C223.293 79.424 224.053 79.288 224.853 79.288C225.205 79.288 225.549 79.312 225.885 79.36C226.237 79.408 226.517 79.472 226.725 79.552V81.16C226.517 81.08 226.269 81 225.981 80.92C225.709 80.84 225.413 80.8 225.093 80.8C224.709 80.8 224.365 80.872 224.061 81.016C223.757 81.16 223.509 81.432 223.317 81.832C223.141 82.216 223.053 82.776 223.053 83.512V95.536ZM238.662 90.976C238.662 91.712 238.75 92.376 238.926 92.968C239.102 93.56 239.358 94.056 239.694 94.456C240.03 94.856 240.43 95.16 240.894 95.368C241.358 95.576 241.878 95.68 242.454 95.68C243.078 95.68 243.614 95.56 244.062 95.32C244.526 95.08 244.91 94.776 245.214 94.408C245.534 94.04 245.806 93.672 246.03 93.304L247.278 94.336C246.974 94.88 246.59 95.376 246.126 95.824C245.662 96.272 245.11 96.624 244.47 96.88C243.83 97.12 243.07 97.24 242.19 97.24C240.942 97.24 239.83 96.984 238.854 96.472C237.878 95.96 237.11 95.232 236.55 94.288C236.006 93.344 235.734 92.224 235.734 90.928C235.734 89.664 235.998 88.552 236.526 87.592C237.054 86.632 237.774 85.88 238.686 85.336C239.598 84.792 240.622 84.52 241.758 84.52C242.686 84.52 243.494 84.672 244.182 84.976C244.87 85.264 245.454 85.696 245.934 86.272C246.414 86.848 246.774 87.568 247.014 88.432C247.27 89.296 247.398 90.312 247.398 91.48H238.206V90.016H245.142L244.518 90.592C244.502 89.792 244.438 89.104 244.326 88.528C244.214 87.952 244.046 87.488 243.822 87.136C243.598 86.768 243.318 86.496 242.982 86.32C242.646 86.144 242.246 86.056 241.782 86.056C241.35 86.056 240.942 86.168 240.558 86.392C240.174 86.6 239.838 86.912 239.55 87.328C239.278 87.744 239.062 88.256 238.902 88.864C238.742 89.472 238.662 90.176 238.662 90.976ZM257.899 84.64V87.304C257.771 87.272 257.627 87.24 257.467 87.208C257.323 87.176 257.171 87.152 257.011 87.136C256.851 87.12 256.691 87.112 256.531 87.112C256.115 87.112 255.747 87.168 255.427 87.28C255.123 87.376 254.843 87.536 254.587 87.76C254.331 87.968 254.099 88.24 253.891 88.576C253.683 88.896 253.467 89.288 253.243 89.752V88.24C253.483 87.504 253.771 86.864 254.107 86.32C254.459 85.776 254.875 85.352 255.355 85.048C255.835 84.728 256.395 84.568 257.035 84.568C257.211 84.568 257.379 84.576 257.539 84.592C257.699 84.592 257.819 84.608 257.899 84.64ZM249.019 97V95.776H249.067C249.579 95.776 249.995 95.728 250.315 95.632C250.635 95.52 250.795 95.296 250.795 94.96V87.064C250.795 86.84 250.739 86.672 250.627 86.56C250.531 86.448 250.363 86.36 250.123 86.296C249.899 86.216 249.611 86.144 249.259 86.08L249.019 86.032V84.76H253.459V88.408L253.699 88.168V95.08C253.699 95.304 253.803 95.464 254.011 95.56C254.219 95.656 254.467 95.72 254.755 95.752C255.043 95.768 255.299 95.776 255.523 95.776H255.859V97H249.019ZM258.918 86.248V84.88H259.014C259.446 84.88 259.822 84.856 260.142 84.808C260.462 84.744 260.702 84.632 260.862 84.472C261.022 84.296 261.102 84.048 261.102 83.728L262.974 84.76H267.27V86.248H258.918ZM263.814 92.8C263.814 93.488 263.894 94.04 264.054 94.456C264.23 94.856 264.47 95.152 264.774 95.344C265.094 95.52 265.462 95.608 265.878 95.608C266.214 95.608 266.518 95.576 266.79 95.512C267.078 95.448 267.318 95.392 267.51 95.344V96.856C267.366 96.92 267.182 96.976 266.958 97.024C266.75 97.088 266.51 97.136 266.238 97.168C265.982 97.216 265.694 97.24 265.374 97.24C264.59 97.24 263.854 97.112 263.166 96.856C262.494 96.584 261.95 96.128 261.534 95.488C261.134 94.848 260.934 93.968 260.934 92.848V85.168L261.102 85L261.126 81.424H263.814V92.8ZM276.987 89.608V90.88C276.267 90.96 275.627 91.064 275.067 91.192C274.507 91.32 274.019 91.472 273.603 91.648C273.203 91.808 272.867 92 272.595 92.224C272.339 92.448 272.147 92.704 272.019 92.992C271.891 93.28 271.827 93.592 271.827 93.928C271.827 94.312 271.907 94.64 272.067 94.912C272.227 95.184 272.451 95.392 272.739 95.536C273.027 95.68 273.355 95.752 273.723 95.752C274.235 95.752 274.683 95.632 275.067 95.392C275.467 95.136 275.819 94.784 276.123 94.336C276.427 93.888 276.699 93.352 276.939 92.728V94.432C276.715 95.008 276.403 95.512 276.003 95.944C275.619 96.36 275.163 96.68 274.635 96.904C274.107 97.128 273.507 97.24 272.835 97.24C272.099 97.24 271.443 97.112 270.867 96.856C270.291 96.6 269.835 96.232 269.499 95.752C269.163 95.256 268.995 94.672 268.995 94C268.995 93.344 269.163 92.776 269.499 92.296C269.835 91.8 270.339 91.384 271.011 91.048C271.683 90.696 272.515 90.408 273.507 90.184C274.515 89.944 275.675 89.752 276.987 89.608ZM276.627 97V94.504L276.363 94.456V88.456C276.363 87.848 276.283 87.368 276.123 87.016C275.963 86.664 275.715 86.416 275.379 86.272C275.059 86.128 274.667 86.056 274.203 86.056C273.483 86.056 272.891 86.208 272.427 86.512C271.963 86.8 271.603 87.152 271.347 87.568C271.267 87.376 271.235 87.2 271.251 87.04C271.283 86.88 271.347 86.736 271.443 86.608C271.539 86.48 271.659 86.368 271.803 86.272C271.947 86.176 272.107 86.104 272.283 86.056V88.528H269.763V86.032C270.003 85.84 270.331 85.632 270.747 85.408C271.179 85.168 271.707 84.96 272.331 84.784C272.971 84.608 273.675 84.52 274.443 84.52C275.099 84.52 275.707 84.592 276.267 84.736C276.843 84.88 277.347 85.112 277.779 85.432C278.227 85.736 278.571 86.144 278.811 86.656C279.067 87.152 279.195 87.768 279.195 88.504V94.936C279.195 95.144 279.267 95.312 279.411 95.44C279.571 95.552 279.779 95.632 280.035 95.68C280.291 95.728 280.587 95.752 280.923 95.752L280.947 95.776V97H276.627ZM303.737 90.616V94.504C303.497 94.808 303.161 95.12 302.729 95.44C302.297 95.76 301.777 96.056 301.169 96.328C300.577 96.6 299.929 96.824 299.225 97C298.537 97.16 297.801 97.24 297.017 97.24C295.721 97.24 294.537 97.032 293.465 96.616C292.393 96.2 291.473 95.608 290.705 94.84C289.937 94.056 289.345 93.128 288.929 92.056C288.529 90.984 288.329 89.792 288.329 88.48C288.329 87.2 288.545 86.024 288.977 84.952C289.409 83.88 290.009 82.952 290.777 82.168C291.545 81.384 292.433 80.784 293.441 80.368C294.465 79.936 295.569 79.72 296.753 79.72C297.841 79.72 298.777 79.896 299.561 80.248C300.345 80.584 300.993 81.072 301.505 81.712C302.017 82.336 302.401 83.064 302.657 83.896L301.649 83.8L302.057 79.96H303.665V85.168H301.841C301.601 84.4 301.265 83.736 300.833 83.176C300.401 82.616 299.857 82.176 299.201 81.856C298.561 81.536 297.801 81.376 296.921 81.376C296.137 81.376 295.409 81.544 294.737 81.88C294.081 82.216 293.513 82.696 293.033 83.32C292.569 83.944 292.201 84.688 291.929 85.552C291.673 86.416 291.545 87.392 291.545 88.48C291.545 89.6 291.665 90.608 291.905 91.504C292.161 92.384 292.529 93.128 293.009 93.736C293.505 94.328 294.097 94.784 294.785 95.104C295.473 95.424 296.249 95.584 297.113 95.584C297.833 95.584 298.441 95.504 298.937 95.344C299.449 95.168 299.865 94.968 300.185 94.744C300.505 94.52 300.745 94.344 300.905 94.216V90.616C300.905 90.264 300.729 90.032 300.377 89.92C300.025 89.808 299.585 89.752 299.057 89.752H298.793V88.48H305.441V89.752H305.321C304.873 89.752 304.497 89.808 304.193 89.92C303.889 90.032 303.737 90.264 303.737 90.616ZM311.954 90.472C311.954 91.4 312.05 92.184 312.242 92.824C312.45 93.448 312.738 93.952 313.106 94.336C313.474 94.704 313.906 94.976 314.402 95.152C314.914 95.312 315.482 95.392 316.106 95.392C316.714 95.392 317.266 95.304 317.762 95.128C318.274 94.952 318.714 94.68 319.082 94.312C319.45 93.928 319.73 93.424 319.922 92.8C320.13 92.16 320.234 91.384 320.234 90.472V81.76C320.234 81.68 320.17 81.608 320.042 81.544C319.93 81.48 319.778 81.424 319.586 81.376C319.41 81.328 319.21 81.296 318.986 81.28C318.762 81.248 318.546 81.232 318.338 81.232H318.122V79.96H324.026V81.232H323.762C323.41 81.232 323.09 81.272 322.802 81.352C322.53 81.416 322.314 81.528 322.154 81.688C322.01 81.832 321.938 82.04 321.938 82.312V90.472C321.938 91.672 321.77 92.704 321.434 93.568C321.114 94.416 320.658 95.12 320.066 95.68C319.49 96.224 318.818 96.624 318.05 96.88C317.282 97.12 316.458 97.24 315.578 97.24C314.602 97.24 313.706 97.112 312.89 96.856C312.09 96.6 311.386 96.2 310.778 95.656C310.186 95.112 309.722 94.416 309.386 93.568C309.066 92.704 308.906 91.672 308.906 90.472V82.096C308.906 81.744 308.73 81.512 308.378 81.4C308.042 81.288 307.61 81.232 307.082 81.232H306.818V79.96H314.042V81.232H313.826C313.618 81.232 313.402 81.24 313.178 81.256C312.954 81.256 312.746 81.272 312.554 81.304C312.378 81.32 312.234 81.344 312.122 81.376C312.01 81.392 311.954 81.424 311.954 81.472V90.472ZM325.898 97V95.728H326.162C326.514 95.728 326.826 95.696 327.098 95.632C327.37 95.568 327.586 95.456 327.746 95.296C327.906 95.136 327.986 94.944 327.986 94.72V82.096C327.986 81.856 327.906 81.68 327.746 81.568C327.586 81.44 327.37 81.352 327.098 81.304C326.826 81.256 326.514 81.232 326.162 81.232H325.898V79.96H331.97L339.626 94.288L339.266 94.216V81.616C339.266 81.552 339.162 81.496 338.954 81.448C338.746 81.384 338.49 81.336 338.186 81.304C337.882 81.256 337.57 81.232 337.25 81.232H336.914V79.96H343.058V81.232H342.77C342.434 81.232 342.122 81.264 341.834 81.328C341.562 81.392 341.346 81.496 341.186 81.64C341.026 81.784 340.946 81.976 340.946 82.216V97H337.946L329.282 80.896H329.69V95.344C329.69 95.408 329.786 95.472 329.978 95.536C330.186 95.584 330.442 95.632 330.746 95.68C331.066 95.712 331.386 95.728 331.706 95.728H332.018V97H325.898ZM344.812 81.232V79.96H352.468C353.828 79.96 355.06 80.152 356.164 80.536C357.284 80.92 358.244 81.48 359.044 82.216C359.86 82.952 360.484 83.848 360.916 84.904C361.364 85.944 361.588 87.12 361.588 88.432C361.588 89.744 361.364 90.928 360.916 91.984C360.484 93.024 359.86 93.92 359.044 94.672C358.244 95.424 357.284 96 356.164 96.4C355.06 96.8 353.828 97 352.468 97H344.812V95.728H345.1C345.628 95.728 346.06 95.672 346.396 95.56C346.748 95.448 346.924 95.216 346.924 94.864V82.096C346.924 81.776 346.748 81.552 346.396 81.424C346.06 81.296 345.628 81.232 345.1 81.232H344.812ZM352.396 81.52H349.948V95.44H352.396C353.324 95.44 354.148 95.288 354.868 94.984C355.604 94.664 356.236 94.208 356.764 93.616C357.292 93.008 357.692 92.272 357.964 91.408C358.236 90.528 358.372 89.536 358.372 88.432C358.372 87.328 358.236 86.352 357.964 85.504C357.692 84.64 357.292 83.912 356.764 83.32C356.236 82.728 355.604 82.28 354.868 81.976C354.148 81.672 353.324 81.52 352.396 81.52ZM365.936 97.192C365.36 97.192 364.896 97.032 364.544 96.712C364.208 96.376 364.04 95.952 364.04 95.44C364.04 94.896 364.208 94.464 364.544 94.144C364.896 93.824 365.36 93.664 365.936 93.664C366.528 93.664 366.992 93.824 367.328 94.144C367.68 94.464 367.856 94.896 367.856 95.44C367.856 95.952 367.68 96.376 367.328 96.712C366.992 97.032 366.528 97.192 365.936 97.192ZM365.936 88.24C365.36 88.24 364.896 88.08 364.544 87.76C364.208 87.424 364.04 87 364.04 86.488C364.04 85.944 364.208 85.512 364.544 85.192C364.896 84.872 365.36 84.712 365.936 84.712C366.528 84.712 366.992 84.872 367.328 85.192C367.68 85.512 367.856 85.944 367.856 86.488C367.856 87 367.68 87.424 367.328 87.76C366.992 88.08 366.528 88.24 365.936 88.24Z" fill="#29180F"/>
<path d="M448.419 94.504V92.368L455.043 82.384H456.627L456.051 83.608L449.403 93.64V92.488H461.115V94.504H448.419ZM458.499 98.848H455.643V83.464L455.931 82.384H458.499V98.848ZM468.017 97.264C467.137 97.264 466.329 97.088 465.593 96.736C464.873 96.368 464.249 95.856 463.721 95.2C463.193 94.528 462.785 93.728 462.497 92.8C462.209 91.872 462.065 90.84 462.065 89.704C462.065 88.568 462.209 87.536 462.497 86.608C462.785 85.68 463.193 84.888 463.721 84.232C464.249 83.56 464.873 83.048 465.593 82.696C466.329 82.328 467.137 82.144 468.017 82.144C468.897 82.144 469.697 82.328 470.417 82.696C471.153 83.048 471.785 83.56 472.313 84.232C472.841 84.888 473.249 85.68 473.537 86.608C473.825 87.536 473.969 88.568 473.969 89.704C473.969 90.84 473.825 91.872 473.537 92.8C473.249 93.728 472.841 94.528 472.313 95.2C471.785 95.856 471.153 96.368 470.417 96.736C469.697 97.088 468.897 97.264 468.017 97.264ZM468.017 95.704C468.497 95.704 468.921 95.576 469.289 95.32C469.657 95.048 469.969 94.664 470.225 94.168C470.497 93.656 470.697 93.032 470.825 92.296C470.953 91.544 471.017 90.68 471.017 89.704C471.017 88.728 470.953 87.872 470.825 87.136C470.697 86.384 470.497 85.752 470.225 85.24C469.969 84.728 469.657 84.344 469.289 84.088C468.921 83.816 468.497 83.68 468.017 83.68C467.537 83.68 467.113 83.816 466.745 84.088C466.377 84.344 466.057 84.728 465.785 85.24C465.529 85.752 465.337 86.384 465.209 87.136C465.081 87.872 465.017 88.728 465.017 89.704C465.017 90.664 465.081 91.52 465.209 92.272C465.337 93.024 465.529 93.656 465.785 94.168C466.057 94.664 466.377 95.048 466.745 95.32C467.113 95.576 467.537 95.704 468.017 95.704ZM479.335 87.88C478.567 87.88 477.879 87.704 477.271 87.352C476.679 87 476.207 86.52 475.855 85.912C475.519 85.288 475.351 84.584 475.351 83.8C475.351 83.016 475.519 82.32 475.855 81.712C476.207 81.088 476.679 80.6 477.271 80.248C477.879 79.896 478.567 79.72 479.335 79.72C480.119 79.72 480.807 79.896 481.399 80.248C482.007 80.6 482.479 81.088 482.815 81.712C483.151 82.32 483.319 83.016 483.319 83.8C483.319 84.584 483.151 85.288 482.815 85.912C482.479 86.52 482.007 87 481.399 87.352C480.807 87.704 480.119 87.88 479.335 87.88ZM479.335 86.632C479.703 86.632 480.015 86.52 480.271 86.296C480.543 86.072 480.751 85.752 480.895 85.336C481.039 84.904 481.111 84.392 481.111 83.8C481.111 83.208 481.039 82.704 480.895 82.288C480.751 81.856 480.543 81.528 480.271 81.304C480.015 81.08 479.703 80.968 479.335 80.968C478.983 80.968 478.671 81.08 478.399 81.304C478.127 81.528 477.919 81.856 477.775 82.288C477.647 82.704 477.583 83.208 477.583 83.8C477.583 84.392 477.647 84.904 477.775 85.336C477.919 85.752 478.127 86.072 478.399 86.296C478.671 86.52 478.983 86.632 479.335 86.632ZM488.791 97.24C488.007 97.24 487.311 97.064 486.703 96.712C486.111 96.36 485.647 95.88 485.311 95.272C484.975 94.648 484.807 93.944 484.807 93.16C484.807 92.376 484.975 91.68 485.311 91.072C485.647 90.448 486.111 89.96 486.703 89.608C487.311 89.256 488.007 89.08 488.791 89.08C489.559 89.08 490.239 89.256 490.831 89.608C491.439 89.96 491.911 90.448 492.247 91.072C492.599 91.68 492.775 92.376 492.775 93.16C492.775 93.928 492.599 94.624 492.247 95.248C491.911 95.872 491.439 96.36 490.831 96.712C490.239 97.064 489.559 97.24 488.791 97.24ZM475.975 97L490.519 79.96H492.535L477.991 97H475.975ZM488.791 95.992C489.159 95.992 489.471 95.88 489.727 95.656C489.999 95.432 490.199 95.112 490.327 94.696C490.471 94.264 490.543 93.752 490.543 93.16C490.543 92.568 490.471 92.064 490.327 91.648C490.199 91.216 489.999 90.888 489.727 90.664C489.471 90.44 489.159 90.328 488.791 90.328C488.423 90.328 488.103 90.44 487.831 90.664C487.575 90.888 487.375 91.216 487.231 91.648C487.087 92.064 487.015 92.568 487.015 93.16C487.015 93.752 487.087 94.264 487.231 94.696C487.375 95.112 487.575 95.432 487.831 95.656C488.103 95.88 488.423 95.992 488.791 95.992ZM500.413 81.232V79.96H508.069C509.429 79.96 510.661 80.152 511.765 80.536C512.885 80.92 513.845 81.48 514.645 82.216C515.461 82.952 516.085 83.848 516.517 84.904C516.965 85.944 517.189 87.12 517.189 88.432C517.189 89.744 516.965 90.928 516.517 91.984C516.085 93.024 515.461 93.92 514.645 94.672C513.845 95.424 512.885 96 511.765 96.4C510.661 96.8 509.429 97 508.069 97H500.413V95.728H500.701C501.229 95.728 501.661 95.672 501.997 95.56C502.349 95.448 502.525 95.216 502.525 94.864V82.096C502.525 81.776 502.349 81.552 501.997 81.424C501.661 81.296 501.229 81.232 500.701 81.232H500.413ZM507.997 81.52H505.549V95.44H507.997C508.925 95.44 509.749 95.288 510.469 94.984C511.205 94.664 511.837 94.208 512.365 93.616C512.893 93.008 513.293 92.272 513.565 91.408C513.837 90.528 513.973 89.536 513.973 88.432C513.973 87.328 513.837 86.352 513.565 85.504C513.293 84.64 512.893 83.912 512.365 83.32C511.837 82.728 511.205 82.28 510.469 81.976C509.749 81.672 508.925 81.52 507.997 81.52ZM522.186 82.432C521.674 82.432 521.25 82.288 520.914 82C520.594 81.696 520.434 81.296 520.434 80.8C520.434 80.288 520.594 79.888 520.914 79.6C521.25 79.312 521.674 79.168 522.186 79.168C522.714 79.168 523.138 79.312 523.458 79.6C523.794 79.888 523.962 80.288 523.962 80.8C523.962 81.296 523.794 81.696 523.458 82C523.138 82.288 522.714 82.432 522.186 82.432ZM523.722 84.76V94.96C523.722 95.296 523.89 95.52 524.226 95.632C524.562 95.728 524.978 95.776 525.474 95.776H525.498V97H519.066V95.776H519.09C519.602 95.776 520.018 95.728 520.338 95.632C520.674 95.52 520.842 95.296 520.842 94.96V87.064C520.842 86.744 520.714 86.528 520.458 86.416C520.218 86.288 519.834 86.176 519.306 86.08L519.042 86.032V84.76H523.722ZM540.071 95.632C540.743 95.632 541.319 95.536 541.799 95.344C542.279 95.152 542.647 94.856 542.903 94.456C543.175 94.056 543.311 93.552 543.311 92.944C543.311 92.384 543.191 91.92 542.951 91.552C542.711 91.168 542.375 90.856 541.943 90.616C541.527 90.36 541.047 90.144 540.503 89.968C539.959 89.792 539.383 89.616 538.775 89.44C538.135 89.264 537.503 89.056 536.879 88.816C536.271 88.576 535.719 88.264 535.223 87.88C534.727 87.496 534.327 87.024 534.023 86.464C533.735 85.888 533.591 85.168 533.591 84.304C533.591 83.344 533.823 82.528 534.287 81.856C534.767 81.168 535.407 80.64 536.207 80.272C537.007 79.904 537.879 79.72 538.823 79.72C539.607 79.72 540.319 79.832 540.959 80.056C541.615 80.264 542.207 80.632 542.735 81.16C543.263 81.688 543.711 82.424 544.079 83.368L543.095 83.392L543.503 79.96H544.991V84.448H543.287C543.047 83.776 542.727 83.208 542.327 82.744C541.927 82.28 541.455 81.928 540.911 81.688C540.367 81.432 539.783 81.304 539.159 81.304C538.535 81.304 537.999 81.408 537.551 81.616C537.119 81.808 536.783 82.088 536.543 82.456C536.319 82.824 536.207 83.264 536.207 83.776C536.207 84.288 536.327 84.712 536.567 85.048C536.807 85.368 537.127 85.64 537.527 85.864C537.943 86.088 538.423 86.28 538.967 86.44C539.511 86.6 540.071 86.752 540.647 86.896C541.335 87.088 541.999 87.304 542.639 87.544C543.279 87.784 543.855 88.096 544.367 88.48C544.879 88.848 545.279 89.328 545.567 89.92C545.871 90.496 546.023 91.224 546.023 92.104C546.023 93.176 545.767 94.096 545.255 94.864C544.759 95.632 544.079 96.224 543.215 96.64C542.351 97.04 541.367 97.24 540.263 97.24C539.335 97.24 538.447 97.096 537.599 96.808C536.767 96.504 536.023 96.032 535.367 95.392C534.727 94.752 534.215 93.888 533.831 92.8L535.007 92.968L534.623 97H533.015V91.672H534.767C535.039 92.472 535.431 93.176 535.943 93.784C536.471 94.376 537.087 94.832 537.791 95.152C538.511 95.472 539.271 95.632 540.071 95.632ZM555.23 95.704C555.886 95.704 556.454 95.568 556.934 95.296C557.414 95.024 557.822 94.696 558.158 94.312C558.51 93.912 558.806 93.528 559.046 93.16L560.246 94.168C559.894 94.744 559.478 95.264 558.998 95.728C558.518 96.192 557.942 96.56 557.27 96.832C556.614 97.104 555.838 97.24 554.942 97.24C553.646 97.24 552.502 96.976 551.51 96.448C550.534 95.904 549.774 95.16 549.23 94.216C548.686 93.256 548.414 92.144 548.414 90.88C548.414 89.6 548.694 88.488 549.254 87.544C549.83 86.6 550.622 85.864 551.63 85.336C552.638 84.792 553.814 84.52 555.158 84.52C556.006 84.52 556.75 84.616 557.39 84.808C558.03 84.984 558.566 85.192 558.998 85.432C559.446 85.656 559.774 85.864 559.982 86.056V89.104H557.462V86.272C557.654 86.304 557.814 86.368 557.942 86.464C558.086 86.544 558.198 86.648 558.278 86.776C558.374 86.904 558.43 87.048 558.446 87.208C558.462 87.352 558.446 87.512 558.398 87.688C558.142 87.224 557.726 86.84 557.15 86.536C556.574 86.216 555.934 86.056 555.23 86.056C554.398 86.056 553.694 86.264 553.118 86.68C552.558 87.08 552.134 87.648 551.846 88.384C551.558 89.104 551.414 89.936 551.414 90.88C551.414 91.616 551.502 92.28 551.678 92.872C551.854 93.448 552.102 93.952 552.422 94.384C552.742 94.8 553.134 95.128 553.598 95.368C554.078 95.592 554.622 95.704 555.23 95.704ZM574.945 90.88C574.945 92.128 574.673 93.232 574.129 94.192C573.585 95.152 572.825 95.904 571.849 96.448C570.873 96.976 569.737 97.24 568.441 97.24C567.161 97.24 566.033 96.976 565.057 96.448C564.081 95.904 563.313 95.152 562.753 94.192C562.209 93.232 561.937 92.128 561.937 90.88C561.937 89.952 562.089 89.104 562.393 88.336C562.713 87.552 563.161 86.88 563.737 86.32C564.329 85.744 565.017 85.304 565.801 85C566.601 84.68 567.481 84.52 568.441 84.52C569.401 84.52 570.273 84.68 571.057 85C571.857 85.304 572.545 85.744 573.121 86.32C573.713 86.88 574.161 87.552 574.465 88.336C574.785 89.104 574.945 89.952 574.945 90.88ZM564.937 90.88C564.937 91.872 565.081 92.736 565.369 93.472C565.657 94.192 566.057 94.752 566.569 95.152C567.097 95.536 567.721 95.728 568.441 95.728C569.177 95.728 569.801 95.536 570.313 95.152C570.841 94.752 571.241 94.192 571.513 93.472C571.801 92.736 571.945 91.872 571.945 90.88C571.945 89.872 571.801 89.008 571.513 88.288C571.241 87.568 570.841 87.016 570.313 86.632C569.801 86.248 569.177 86.056 568.441 86.056C567.721 86.056 567.097 86.248 566.569 86.632C566.057 87.016 565.657 87.568 565.369 88.288C565.081 89.008 564.937 89.872 564.937 90.88ZM576.722 97V95.776H576.77C577.106 95.776 577.402 95.76 577.658 95.728C577.93 95.68 578.138 95.6 578.282 95.488C578.426 95.36 578.498 95.184 578.498 94.96V87.064C578.498 86.84 578.442 86.672 578.33 86.56C578.234 86.448 578.066 86.36 577.826 86.296C577.602 86.216 577.314 86.144 576.962 86.08L576.722 86.032V84.76H581.162V87.352L581.402 87.52V95.56C581.402 95.608 581.482 95.656 581.642 95.704C581.802 95.736 582.002 95.76 582.242 95.776C582.482 95.776 582.706 95.776 582.914 95.776H582.962V97H576.722ZM591.098 97H584.882V95.776H584.906C585.114 95.776 585.338 95.776 585.578 95.776C585.818 95.76 586.018 95.736 586.178 95.704C586.354 95.656 586.442 95.608 586.442 95.56V88.648C586.442 88.104 586.386 87.664 586.274 87.328C586.162 86.992 585.97 86.744 585.698 86.584C585.442 86.408 585.09 86.32 584.642 86.32C584.162 86.32 583.706 86.424 583.274 86.632C582.842 86.84 582.434 87.152 582.05 87.568C581.666 87.984 581.298 88.504 580.946 89.128V87.304C581.33 86.696 581.738 86.192 582.17 85.792C582.618 85.376 583.114 85.064 583.658 84.856C584.202 84.632 584.794 84.52 585.434 84.52C586.218 84.52 586.898 84.664 587.474 84.952C588.066 85.24 588.522 85.68 588.842 86.272C589.178 86.848 589.346 87.584 589.346 88.48V94.96C589.346 95.184 589.418 95.36 589.562 95.488C589.706 95.6 589.906 95.68 590.162 95.728C590.434 95.76 590.738 95.776 591.074 95.776H591.098V97ZM591.777 86.248V84.88H591.873C592.305 84.88 592.681 84.856 593.001 84.808C593.321 84.744 593.561 84.632 593.721 84.472C593.881 84.296 593.961 84.048 593.961 83.728L595.833 84.76H600.129V86.248H591.777ZM596.673 92.8C596.673 93.488 596.753 94.04 596.913 94.456C597.089 94.856 597.329 95.152 597.633 95.344C597.953 95.52 598.321 95.608 598.737 95.608C599.073 95.608 599.377 95.576 599.649 95.512C599.937 95.448 600.177 95.392 600.369 95.344V96.856C600.225 96.92 600.041 96.976 599.817 97.024C599.609 97.088 599.369 97.136 599.097 97.168C598.841 97.216 598.553 97.24 598.233 97.24C597.449 97.24 596.713 97.112 596.025 96.856C595.353 96.584 594.809 96.128 594.393 95.488C593.993 94.848 593.793 93.968 593.793 92.848V85.168L593.961 85L593.985 81.424H596.673V92.8ZM614.555 90.88C614.555 92.128 614.283 93.232 613.739 94.192C613.195 95.152 612.435 95.904 611.459 96.448C610.483 96.976 609.347 97.24 608.051 97.24C606.771 97.24 605.643 96.976 604.667 96.448C603.691 95.904 602.923 95.152 602.363 94.192C601.819 93.232 601.547 92.128 601.547 90.88C601.547 89.952 601.699 89.104 602.003 88.336C602.323 87.552 602.771 86.88 603.347 86.32C603.939 85.744 604.627 85.304 605.411 85C606.211 84.68 607.091 84.52 608.051 84.52C609.011 84.52 609.883 84.68 610.667 85C611.467 85.304 612.155 85.744 612.731 86.32C613.323 86.88 613.771 87.552 614.075 88.336C614.395 89.104 614.555 89.952 614.555 90.88ZM604.547 90.88C604.547 91.872 604.691 92.736 604.979 93.472C605.267 94.192 605.667 94.752 606.179 95.152C606.707 95.536 607.331 95.728 608.051 95.728C608.787 95.728 609.411 95.536 609.923 95.152C610.451 94.752 610.851 94.192 611.123 93.472C611.411 92.736 611.555 91.872 611.555 90.88C611.555 89.872 611.411 89.008 611.123 88.288C610.851 87.568 610.451 87.016 609.923 86.632C609.411 86.248 608.787 86.056 608.051 86.056C607.331 86.056 606.707 86.248 606.179 86.632C605.667 87.016 605.267 87.568 604.979 88.288C604.691 89.008 604.547 89.872 604.547 90.88ZM622.546 81.232V79.96H630.202C631.562 79.96 632.794 80.152 633.898 80.536C635.018 80.92 635.978 81.48 636.778 82.216C637.594 82.952 638.218 83.848 638.65 84.904C639.098 85.944 639.322 87.12 639.322 88.432C639.322 89.744 639.098 90.928 638.65 91.984C638.218 93.024 637.594 93.92 636.778 94.672C635.978 95.424 635.018 96 633.898 96.4C632.794 96.8 631.562 97 630.202 97H622.546V95.728H622.834C623.362 95.728 623.794 95.672 624.13 95.56C624.482 95.448 624.658 95.216 624.658 94.864V82.096C624.658 81.776 624.482 81.552 624.13 81.424C623.794 81.296 623.362 81.232 622.834 81.232H622.546ZM630.13 81.52H627.682V95.44H630.13C631.058 95.44 631.882 95.288 632.602 94.984C633.338 94.664 633.97 94.208 634.498 93.616C635.026 93.008 635.426 92.272 635.698 91.408C635.97 90.528 636.106 89.536 636.106 88.432C636.106 87.328 635.97 86.352 635.698 85.504C635.426 84.64 635.026 83.912 634.498 83.32C633.97 82.728 633.338 82.28 632.602 81.976C631.882 81.672 631.058 81.52 630.13 81.52ZM649.432 89.608V90.88C648.712 90.96 648.072 91.064 647.512 91.192C646.952 91.32 646.464 91.472 646.048 91.648C645.648 91.808 645.312 92 645.04 92.224C644.784 92.448 644.592 92.704 644.464 92.992C644.336 93.28 644.272 93.592 644.272 93.928C644.272 94.312 644.352 94.64 644.512 94.912C644.672 95.184 644.896 95.392 645.184 95.536C645.472 95.68 645.8 95.752 646.168 95.752C646.68 95.752 647.128 95.632 647.512 95.392C647.912 95.136 648.264 94.784 648.568 94.336C648.872 93.888 649.144 93.352 649.384 92.728V94.432C649.16 95.008 648.848 95.512 648.448 95.944C648.064 96.36 647.608 96.68 647.08 96.904C646.552 97.128 645.952 97.24 645.28 97.24C644.544 97.24 643.888 97.112 643.312 96.856C642.736 96.6 642.28 96.232 641.944 95.752C641.608 95.256 641.44 94.672 641.44 94C641.44 93.344 641.608 92.776 641.944 92.296C642.28 91.8 642.784 91.384 643.456 91.048C644.128 90.696 644.96 90.408 645.952 90.184C646.96 89.944 648.12 89.752 649.432 89.608ZM649.072 97V94.504L648.808 94.456V88.456C648.808 87.848 648.728 87.368 648.568 87.016C648.408 86.664 648.16 86.416 647.824 86.272C647.504 86.128 647.112 86.056 646.648 86.056C645.928 86.056 645.336 86.208 644.872 86.512C644.408 86.8 644.048 87.152 643.792 87.568C643.712 87.376 643.68 87.2 643.696 87.04C643.728 86.88 643.792 86.736 643.888 86.608C643.984 86.48 644.104 86.368 644.248 86.272C644.392 86.176 644.552 86.104 644.728 86.056V88.528H642.208V86.032C642.448 85.84 642.776 85.632 643.192 85.408C643.624 85.168 644.152 84.96 644.776 84.784C645.416 84.608 646.12 84.52 646.888 84.52C647.544 84.52 648.152 84.592 648.712 84.736C649.288 84.88 649.792 85.112 650.224 85.432C650.672 85.736 651.016 86.144 651.256 86.656C651.512 87.152 651.64 87.768 651.64 88.504V94.936C651.64 95.144 651.712 95.312 651.856 95.44C652.016 95.552 652.224 95.632 652.48 95.68C652.736 95.728 653.032 95.752 653.368 95.752L653.392 95.776V97H649.072ZM659.071 79.36V94.96C659.071 95.296 659.231 95.52 659.551 95.632C659.887 95.728 660.311 95.776 660.823 95.776H660.847V97H654.415V95.776H654.463C654.975 95.776 655.391 95.728 655.711 95.632C656.031 95.52 656.191 95.296 656.191 94.96V81.64C656.191 81.416 656.135 81.248 656.023 81.136C655.911 81.024 655.743 80.928 655.519 80.848C655.311 80.768 655.023 80.704 654.655 80.656L654.415 80.608V79.36H659.071ZM675.089 94.84H669.257C669.241 94.888 669.233 94.968 669.233 95.08C669.233 95.176 669.241 95.264 669.257 95.344C669.289 95.424 669.329 95.472 669.377 95.488C670.273 95.024 671.177 94.536 672.089 94.024C673.001 93.496 673.873 92.944 674.705 92.368C675.537 91.776 676.281 91.168 676.937 90.544C677.593 89.904 678.113 89.24 678.497 88.552C678.881 87.864 679.073 87.152 679.073 86.416C679.073 85.488 678.865 84.712 678.449 84.088C678.033 83.464 677.433 82.992 676.649 82.672C675.865 82.336 674.913 82.168 673.793 82.168C672.993 82.168 672.241 82.28 671.537 82.504C670.849 82.728 670.249 83.008 669.737 83.344C669.241 83.68 668.865 84.024 668.609 84.376V86.776H671.105V84.112C670.961 84.128 670.825 84.184 670.697 84.28C670.585 84.376 670.489 84.496 670.409 84.64C670.345 84.768 670.289 84.92 670.241 85.096C670.209 85.256 670.185 85.432 670.169 85.624C670.393 85.272 670.673 84.96 671.009 84.688C671.361 84.4 671.753 84.168 672.185 83.992C672.633 83.816 673.113 83.728 673.625 83.728C674.169 83.728 674.625 83.824 674.993 84.016C675.377 84.192 675.665 84.472 675.857 84.856C676.065 85.224 676.169 85.72 676.169 86.344C676.169 87 676.025 87.624 675.737 88.216C675.465 88.808 675.073 89.376 674.561 89.92C674.065 90.464 673.481 90.992 672.809 91.504C672.153 92 671.433 92.496 670.649 92.992C669.881 93.472 669.089 93.96 668.273 94.456V97H679.625V92.176H678.089L677.873 93.856C677.841 94.144 677.729 94.36 677.537 94.504C677.345 94.648 677.049 94.744 676.649 94.792C676.249 94.824 675.729 94.84 675.089 94.84ZM687.462 97.264C686.582 97.264 685.774 97.088 685.038 96.736C684.318 96.368 683.694 95.856 683.166 95.2C682.638 94.528 682.23 93.728 681.942 92.8C681.654 91.872 681.51 90.84 681.51 89.704C681.51 88.568 681.654 87.536 681.942 86.608C682.23 85.68 682.638 84.888 683.166 84.232C683.694 83.56 684.318 83.048 685.038 82.696C685.774 82.328 686.582 82.144 687.462 82.144C688.342 82.144 689.142 82.328 689.862 82.696C690.598 83.048 691.23 83.56 691.758 84.232C692.286 84.888 692.694 85.68 692.982 86.608C693.27 87.536 693.414 88.568 693.414 89.704C693.414 90.84 693.27 91.872 692.982 92.8C692.694 93.728 692.286 94.528 691.758 95.2C691.23 95.856 690.598 96.368 689.862 96.736C689.142 97.088 688.342 97.264 687.462 97.264ZM687.462 95.704C687.942 95.704 688.366 95.576 688.734 95.32C689.102 95.048 689.414 94.664 689.67 94.168C689.942 93.656 690.142 93.032 690.27 92.296C690.398 91.544 690.462 90.68 690.462 89.704C690.462 88.728 690.398 87.872 690.27 87.136C690.142 86.384 689.942 85.752 689.67 85.24C689.414 84.728 689.102 84.344 688.734 84.088C688.366 83.816 687.942 83.68 687.462 83.68C686.982 83.68 686.558 83.816 686.19 84.088C685.822 84.344 685.502 84.728 685.23 85.24C684.974 85.752 684.782 86.384 684.654 87.136C684.526 87.872 684.462 88.728 684.462 89.704C684.462 90.664 684.526 91.52 684.654 92.272C684.782 93.024 684.974 93.656 685.23 94.168C685.502 94.664 685.822 95.048 686.19 95.32C686.558 95.576 686.982 95.704 687.462 95.704ZM704.515 89.752H711.523L711.547 91.264H704.395L704.515 89.752ZM707.611 81.064L708.115 81.904L703.603 95.296C703.603 95.376 703.691 95.456 703.867 95.536C704.059 95.6 704.291 95.648 704.563 95.68C704.851 95.712 705.139 95.728 705.427 95.728H705.787V97H700.411V95.728H700.531C700.947 95.728 701.275 95.664 701.515 95.536C701.755 95.408 701.947 95.12 702.091 94.672L707.107 79.96H710.227L715.411 95.056C715.507 95.344 715.675 95.528 715.915 95.608C716.171 95.688 716.491 95.728 716.875 95.728H716.971V97H710.203V95.728H710.611C710.883 95.728 711.163 95.72 711.451 95.704C711.739 95.688 711.979 95.664 712.171 95.632C712.379 95.584 712.483 95.536 712.483 95.488L707.611 81.064ZM724.654 102.352H717.79V101.128H717.814C718.15 101.128 718.446 101.104 718.702 101.056C718.974 101.024 719.182 100.944 719.326 100.816C719.47 100.704 719.542 100.536 719.542 100.312V87.064C719.542 86.84 719.486 86.672 719.374 86.56C719.278 86.448 719.11 86.36 718.87 86.296C718.646 86.216 718.358 86.144 718.006 86.08L717.79 86.032V84.76H722.206V87.856L722.446 88.072V100.912C722.446 100.96 722.542 101 722.734 101.032C722.926 101.064 723.15 101.088 723.406 101.104C723.662 101.12 723.894 101.128 724.102 101.128H724.654V102.352ZM726.214 97.24C725.59 97.24 725.03 97.16 724.534 97C724.038 96.824 723.582 96.56 723.166 96.208C722.75 95.856 722.35 95.4 721.966 94.84L721.99 92.464C722.31 93.152 722.654 93.728 723.022 94.192C723.406 94.656 723.822 95.008 724.27 95.248C724.734 95.488 725.238 95.608 725.782 95.608C726.294 95.608 726.75 95.496 727.15 95.272C727.55 95.048 727.878 94.72 728.134 94.288C728.406 93.856 728.606 93.352 728.734 92.776C728.862 92.184 728.926 91.52 728.926 90.784C728.926 90.064 728.862 89.424 728.734 88.864C728.606 88.288 728.414 87.8 728.158 87.4C727.902 86.984 727.582 86.672 727.198 86.464C726.83 86.256 726.398 86.152 725.902 86.152C725.326 86.152 724.806 86.288 724.342 86.56C723.878 86.816 723.454 87.192 723.07 87.688C722.686 88.184 722.326 88.792 721.99 89.512L721.966 87.352C722.382 86.712 722.798 86.192 723.214 85.792C723.646 85.376 724.118 85.064 724.63 84.856C725.158 84.632 725.75 84.52 726.406 84.52C727.51 84.52 728.478 84.784 729.31 85.312C730.142 85.84 730.782 86.576 731.23 87.52C731.694 88.448 731.926 89.536 731.926 90.784C731.926 92.064 731.686 93.192 731.206 94.168C730.742 95.128 730.078 95.88 729.214 96.424C728.366 96.968 727.366 97.24 726.214 97.24ZM742.61 84.64V87.304C742.482 87.272 742.338 87.24 742.178 87.208C742.034 87.176 741.882 87.152 741.722 87.136C741.562 87.12 741.402 87.112 741.242 87.112C740.826 87.112 740.458 87.168 740.138 87.28C739.834 87.376 739.554 87.536 739.298 87.76C739.042 87.968 738.81 88.24 738.602 88.576C738.394 88.896 738.178 89.288 737.954 89.752V88.24C738.194 87.504 738.482 86.864 738.818 86.32C739.17 85.776 739.586 85.352 740.066 85.048C740.546 84.728 741.106 84.568 741.746 84.568C741.922 84.568 742.09 84.576 742.25 84.592C742.41 84.592 742.53 84.608 742.61 84.64ZM733.729 97V95.776H733.778C734.29 95.776 734.706 95.728 735.026 95.632C735.346 95.52 735.506 95.296 735.506 94.96V87.064C735.506 86.84 735.45 86.672 735.338 86.56C735.242 86.448 735.074 86.36 734.834 86.296C734.61 86.216 734.322 86.144 733.97 86.08L733.729 86.032V84.76H738.17V88.408L738.41 88.168V95.08C738.41 95.304 738.514 95.464 738.722 95.56C738.93 95.656 739.178 95.72 739.466 95.752C739.754 95.768 740.01 95.776 740.234 95.776H740.57V97H733.729ZM747.069 82.432C746.557 82.432 746.133 82.288 745.797 82C745.477 81.696 745.317 81.296 745.317 80.8C745.317 80.288 745.477 79.888 745.797 79.6C746.133 79.312 746.557 79.168 747.069 79.168C747.597 79.168 748.021 79.312 748.341 79.6C748.677 79.888 748.845 80.288 748.845 80.8C748.845 81.296 748.677 81.696 748.341 82C748.021 82.288 747.597 82.432 747.069 82.432ZM748.605 84.76V94.96C748.605 95.296 748.773 95.52 749.109 95.632C749.445 95.728 749.861 95.776 750.357 95.776H750.381V97H743.949V95.776H743.973C744.485 95.776 744.901 95.728 745.221 95.632C745.557 95.52 745.725 95.296 745.725 94.96V87.064C745.725 86.744 745.597 86.528 745.341 86.416C745.101 86.288 744.717 86.176 744.189 86.08L743.925 86.032V84.76H748.605ZM756.267 79.36V94.96C756.267 95.296 756.427 95.52 756.747 95.632C757.083 95.728 757.507 95.776 758.019 95.776H758.043V97H751.611V95.776H751.659C752.171 95.776 752.587 95.728 752.907 95.632C753.227 95.52 753.387 95.296 753.387 94.96V81.64C753.387 81.416 753.331 81.248 753.219 81.136C753.107 81.024 752.939 80.928 752.715 80.848C752.507 80.768 752.219 80.704 751.851 80.656L751.611 80.608V79.36H756.267ZM762.373 90.976C762.373 91.712 762.461 92.376 762.637 92.968C762.813 93.56 763.069 94.056 763.405 94.456C763.741 94.856 764.141 95.16 764.605 95.368C765.069 95.576 765.589 95.68 766.165 95.68C766.789 95.68 767.325 95.56 767.773 95.32C768.237 95.08 768.621 94.776 768.925 94.408C769.245 94.04 769.517 93.672 769.741 93.304L770.989 94.336C770.685 94.88 770.301 95.376 769.837 95.824C769.373 96.272 768.821 96.624 768.181 96.88C767.541 97.12 766.781 97.24 765.901 97.24C764.653 97.24 763.541 96.984 762.565 96.472C761.589 95.96 760.821 95.232 760.261 94.288C759.717 93.344 759.445 92.224 759.445 90.928C759.445 89.664 759.709 88.552 760.237 87.592C760.765 86.632 761.485 85.88 762.397 85.336C763.309 84.792 764.333 84.52 765.469 84.52C766.397 84.52 767.205 84.672 767.893 84.976C768.581 85.264 769.165 85.696 769.645 86.272C770.125 86.848 770.485 87.568 770.725 88.432C770.981 89.296 771.109 90.312 771.109 91.48H761.917V90.016H768.853L768.229 90.592C768.213 89.792 768.149 89.104 768.037 88.528C767.925 87.952 767.757 87.488 767.533 87.136C767.309 86.768 767.029 86.496 766.693 86.32C766.357 86.144 765.957 86.056 765.493 86.056C765.061 86.056 764.653 86.168 764.269 86.392C763.885 86.6 763.549 86.912 763.261 87.328C762.989 87.744 762.773 88.256 762.613 88.864C762.453 89.472 762.373 90.176 762.373 90.976ZM782.28 89.752H789.288L789.312 91.264H782.16L782.28 89.752ZM785.376 81.064L785.88 81.904L781.368 95.296C781.368 95.376 781.456 95.456 781.632 95.536C781.824 95.6 782.056 95.648 782.328 95.68C782.616 95.712 782.904 95.728 783.192 95.728H783.552V97H778.176V95.728H778.296C778.712 95.728 779.04 95.664 779.28 95.536C779.52 95.408 779.712 95.12 779.856 94.672L784.872 79.96H787.992L793.176 95.056C793.272 95.344 793.44 95.528 793.68 95.608C793.936 95.688 794.256 95.728 794.64 95.728H794.736V97H787.968V95.728H788.376C788.648 95.728 788.928 95.72 789.216 95.704C789.504 95.688 789.744 95.664 789.936 95.632C790.144 95.584 790.248 95.536 790.248 95.488L785.376 81.064ZM800.61 79.36V94.96C800.61 95.296 800.77 95.52 801.09 95.632C801.426 95.728 801.85 95.776 802.362 95.776H802.386V97H795.954V95.776H796.002C796.514 95.776 796.93 95.728 797.25 95.632C797.57 95.52 797.73 95.296 797.73 94.96V81.64C797.73 81.416 797.674 81.248 797.562 81.136C797.45 81.024 797.282 80.928 797.058 80.848C796.85 80.768 796.562 80.704 796.194 80.656L795.954 80.608V79.36H800.61ZM815.284 99.16C816.516 99.16 817.588 98.92 818.5 98.44C819.412 97.96 820.116 97.296 820.612 96.448C821.124 95.584 821.38 94.584 821.38 93.448C821.38 92.504 821.172 91.64 820.756 90.856C820.34 90.056 819.74 89.416 818.956 88.936C818.172 88.456 817.236 88.216 816.148 88.216C815.508 88.216 814.916 88.304 814.372 88.48C813.844 88.656 813.372 88.904 812.956 89.224C812.54 89.544 812.188 89.92 811.9 90.352C811.916 90.496 811.964 90.584 812.044 90.616C812.14 90.648 812.236 90.64 812.332 90.592C812.428 90.544 812.484 90.472 812.5 90.376V82.864L811.924 84.64H819.796L820.324 82.384H810.796V91.432H812.284C812.54 91.064 812.828 90.76 813.148 90.52C813.468 90.28 813.82 90.104 814.204 89.992C814.588 89.864 815.012 89.8 815.476 89.8C816.068 89.8 816.588 89.944 817.036 90.232C817.5 90.504 817.86 90.912 818.116 91.456C818.388 92 818.524 92.664 818.524 93.448C818.524 94.296 818.38 95.032 818.092 95.656C817.82 96.264 817.428 96.728 816.916 97.048C816.404 97.384 815.796 97.552 815.092 97.552C814.276 97.552 813.596 97.4 813.052 97.096C812.508 96.792 812.06 96.416 811.708 95.968C811.356 95.504 811.068 95.056 810.844 94.624L809.428 95.656C809.732 96.28 810.14 96.856 810.652 97.384C811.164 97.928 811.804 98.36 812.572 98.68C813.34 99 814.244 99.16 815.284 99.16ZM829.288 97V95.728H829.552C829.904 95.728 830.216 95.704 830.488 95.656C830.76 95.608 830.976 95.52 831.136 95.392C831.296 95.248 831.376 95.064 831.376 94.84V82.096C831.376 81.856 831.296 81.68 831.136 81.568C830.976 81.44 830.76 81.352 830.488 81.304C830.216 81.256 829.904 81.232 829.552 81.232H829.288V79.96H835.768L840.112 94.12L839.536 93.592L843.952 79.96H850.312V81.232H850.048C849.696 81.232 849.376 81.256 849.088 81.304C848.816 81.352 848.6 81.44 848.44 81.568C848.296 81.68 848.224 81.856 848.224 82.096V94.864C848.224 95.088 848.296 95.264 848.44 95.392C848.6 95.52 848.816 95.608 849.088 95.656C849.376 95.704 849.696 95.728 850.048 95.728H850.312V97H843.28V95.728H843.496C843.768 95.728 844.032 95.72 844.288 95.704C844.544 95.688 844.752 95.664 844.912 95.632C845.088 95.584 845.176 95.536 845.176 95.488V80.464L845.44 80.512L840.016 97.048H838.264L832.816 80.512L833.08 80.536V95.464C833.08 95.512 833.176 95.56 833.368 95.608C833.56 95.656 833.8 95.688 834.088 95.704C834.376 95.72 834.64 95.728 834.88 95.728H835V97H829.288ZM860.229 89.608V90.88C859.509 90.96 858.869 91.064 858.309 91.192C857.749 91.32 857.261 91.472 856.845 91.648C856.445 91.808 856.109 92 855.837 92.224C855.581 92.448 855.389 92.704 855.261 92.992C855.133 93.28 855.069 93.592 855.069 93.928C855.069 94.312 855.149 94.64 855.309 94.912C855.469 95.184 855.693 95.392 855.981 95.536C856.269 95.68 856.597 95.752 856.965 95.752C857.477 95.752 857.925 95.632 858.309 95.392C858.709 95.136 859.061 94.784 859.365 94.336C859.669 93.888 859.941 93.352 860.181 92.728V94.432C859.957 95.008 859.645 95.512 859.245 95.944C858.861 96.36 858.405 96.68 857.877 96.904C857.349 97.128 856.749 97.24 856.077 97.24C855.341 97.24 854.685 97.112 854.109 96.856C853.533 96.6 853.077 96.232 852.741 95.752C852.405 95.256 852.237 94.672 852.237 94C852.237 93.344 852.405 92.776 852.741 92.296C853.077 91.8 853.581 91.384 854.253 91.048C854.925 90.696 855.757 90.408 856.749 90.184C857.757 89.944 858.917 89.752 860.229 89.608ZM859.869 97V94.504L859.605 94.456V88.456C859.605 87.848 859.525 87.368 859.365 87.016C859.205 86.664 858.957 86.416 858.621 86.272C858.301 86.128 857.909 86.056 857.445 86.056C856.725 86.056 856.133 86.208 855.669 86.512C855.205 86.8 854.845 87.152 854.589 87.568C854.509 87.376 854.477 87.2 854.493 87.04C854.525 86.88 854.589 86.736 854.685 86.608C854.781 86.48 854.901 86.368 855.045 86.272C855.189 86.176 855.349 86.104 855.525 86.056V88.528H853.005V86.032C853.245 85.84 853.573 85.632 853.989 85.408C854.421 85.168 854.949 84.96 855.573 84.784C856.213 84.608 856.917 84.52 857.685 84.52C858.341 84.52 858.949 84.592 859.509 84.736C860.085 84.88 860.589 85.112 861.021 85.432C861.469 85.736 861.813 86.144 862.053 86.656C862.309 87.152 862.437 87.768 862.437 88.504V94.936C862.437 95.144 862.509 95.312 862.653 95.44C862.813 95.552 863.021 95.632 863.277 95.68C863.533 95.728 863.829 95.752 864.165 95.752L864.189 95.776V97H859.869ZM878.436 86.752C877.764 86.672 877.18 86.624 876.684 86.608C876.204 86.592 875.788 86.624 875.436 86.704C875.1 86.768 874.828 86.912 874.62 87.136L874.236 86.848C874.476 86.368 874.74 85.96 875.028 85.624C875.332 85.272 875.66 84.992 876.012 84.784C876.364 84.56 876.74 84.408 877.14 84.328C877.54 84.248 877.972 84.232 878.436 84.28V86.752ZM871.164 93.28C870.172 93.28 869.284 93.104 868.5 92.752C867.732 92.4 867.132 91.904 866.7 91.264C866.268 90.608 866.052 89.832 866.052 88.936C866.052 88.056 866.268 87.288 866.7 86.632C867.148 85.976 867.756 85.464 868.524 85.096C869.308 84.712 870.188 84.52 871.164 84.52C872.172 84.52 873.06 84.712 873.828 85.096C874.596 85.464 875.204 85.976 875.652 86.632C876.1 87.288 876.324 88.056 876.324 88.936C876.324 89.832 876.1 90.608 875.652 91.264C875.204 91.904 874.596 92.4 873.828 92.752C873.06 93.104 872.172 93.28 871.164 93.28ZM871.164 91.816C871.66 91.816 872.084 91.712 872.436 91.504C872.804 91.28 873.084 90.96 873.276 90.544C873.468 90.112 873.564 89.584 873.564 88.96C873.564 88.32 873.468 87.784 873.276 87.352C873.084 86.92 872.804 86.592 872.436 86.368C872.084 86.144 871.66 86.032 871.164 86.032C870.684 86.032 870.268 86.144 869.916 86.368C869.564 86.592 869.284 86.92 869.076 87.352C868.884 87.784 868.788 88.32 868.788 88.96C868.788 89.584 868.884 90.112 869.076 90.544C869.284 90.96 869.564 91.28 869.916 91.504C870.268 91.712 870.684 91.816 871.164 91.816ZM870.66 102.664C869.54 102.664 868.532 102.568 867.636 102.376C866.756 102.184 866.06 101.864 865.548 101.416C865.052 100.968 864.804 100.376 864.804 99.64C864.804 99.24 864.908 98.88 865.116 98.56C865.324 98.256 865.652 97.968 866.1 97.696C866.548 97.44 867.124 97.184 867.828 96.928L868.716 97.576C868.348 97.752 868.044 97.936 867.804 98.128C867.564 98.336 867.388 98.552 867.276 98.776C867.18 99 867.132 99.232 867.132 99.472C867.132 99.84 867.26 100.144 867.516 100.384C867.772 100.624 868.172 100.808 868.716 100.936C869.26 101.08 869.956 101.152 870.804 101.152H871.596C872.412 101.152 873.124 101.056 873.732 100.864C874.34 100.688 874.804 100.44 875.124 100.12C875.46 99.8 875.628 99.432 875.628 99.016C875.628 98.616 875.476 98.32 875.172 98.128C874.884 97.952 874.324 97.864 873.492 97.864H867.852L867.756 97.744C867.228 97.504 866.804 97.256 866.484 97C866.164 96.744 865.94 96.472 865.812 96.184C865.684 95.88 865.62 95.552 865.62 95.2C865.62 94.784 865.724 94.4 865.932 94.048C866.14 93.68 866.46 93.336 866.892 93.016C867.324 92.696 867.86 92.408 868.5 92.152L869.532 92.776C869.212 92.936 868.932 93.096 868.692 93.256C868.452 93.416 868.268 93.592 868.14 93.784C868.028 93.96 867.972 94.16 867.972 94.384C867.972 94.704 868.124 94.936 868.428 95.08C868.748 95.224 869.204 95.296 869.796 95.296H873.588C874.58 95.296 875.412 95.408 876.084 95.632C876.756 95.856 877.268 96.2 877.62 96.664C877.972 97.112 878.148 97.688 878.148 98.392C878.148 99.352 877.852 100.152 877.26 100.792C876.684 101.432 875.9 101.904 874.908 102.208C873.932 102.512 872.852 102.664 871.668 102.664H870.66ZM892.733 86.752C892.061 86.672 891.477 86.624 890.981 86.608C890.501 86.592 890.085 86.624 889.733 86.704C889.397 86.768 889.125 86.912 888.917 87.136L888.533 86.848C888.773 86.368 889.037 85.96 889.325 85.624C889.629 85.272 889.957 84.992 890.309 84.784C890.661 84.56 891.037 84.408 891.437 84.328C891.837 84.248 892.269 84.232 892.733 84.28V86.752ZM885.461 93.28C884.469 93.28 883.581 93.104 882.797 92.752C882.029 92.4 881.429 91.904 880.997 91.264C880.565 90.608 880.349 89.832 880.349 88.936C880.349 88.056 880.565 87.288 880.997 86.632C881.445 85.976 882.053 85.464 882.821 85.096C883.605 84.712 884.485 84.52 885.461 84.52C886.469 84.52 887.357 84.712 888.125 85.096C888.893 85.464 889.501 85.976 889.949 86.632C890.397 87.288 890.621 88.056 890.621 88.936C890.621 89.832 890.397 90.608 889.949 91.264C889.501 91.904 888.893 92.4 888.125 92.752C887.357 93.104 886.469 93.28 885.461 93.28ZM885.461 91.816C885.957 91.816 886.381 91.712 886.733 91.504C887.101 91.28 887.381 90.96 887.573 90.544C887.765 90.112 887.861 89.584 887.861 88.96C887.861 88.32 887.765 87.784 887.573 87.352C887.381 86.92 887.101 86.592 886.733 86.368C886.381 86.144 885.957 86.032 885.461 86.032C884.981 86.032 884.565 86.144 884.213 86.368C883.861 86.592 883.581 86.92 883.373 87.352C883.181 87.784 883.085 88.32 883.085 88.96C883.085 89.584 883.181 90.112 883.373 90.544C883.581 90.96 883.861 91.28 884.213 91.504C884.565 91.712 884.981 91.816 885.461 91.816ZM884.957 102.664C883.837 102.664 882.829 102.568 881.933 102.376C881.053 102.184 880.357 101.864 879.845 101.416C879.349 100.968 879.101 100.376 879.101 99.64C879.101 99.24 879.205 98.88 879.413 98.56C879.621 98.256 879.949 97.968 880.396 97.696C880.845 97.44 881.421 97.184 882.125 96.928L883.013 97.576C882.645 97.752 882.341 97.936 882.101 98.128C881.861 98.336 881.685 98.552 881.573 98.776C881.477 99 881.429 99.232 881.429 99.472C881.429 99.84 881.557 100.144 881.812 100.384C882.069 100.624 882.469 100.808 883.013 100.936C883.557 101.08 884.253 101.152 885.101 101.152H885.893C886.709 101.152 887.421 101.056 888.029 100.864C888.637 100.688 889.101 100.44 889.421 100.12C889.757 99.8 889.925 99.432 889.925 99.016C889.925 98.616 889.773 98.32 889.469 98.128C889.181 97.952 888.621 97.864 887.789 97.864H882.149L882.053 97.744C881.525 97.504 881.101 97.256 880.781 97C880.461 96.744 880.237 96.472 880.109 96.184C879.981 95.88 879.917 95.552 879.917 95.2C879.917 94.784 880.021 94.4 880.229 94.048C880.437 93.68 880.757 93.336 881.189 93.016C881.621 92.696 882.157 92.408 882.797 92.152L883.829 92.776C883.509 92.936 883.229 93.096 882.989 93.256C882.749 93.416 882.565 93.592 882.437 93.784C882.325 93.96 882.269 94.16 882.269 94.384C882.269 94.704 882.421 94.936 882.725 95.08C883.045 95.224 883.501 95.296 884.093 95.296H887.885C888.877 95.296 889.709 95.408 890.381 95.632C891.053 95.856 891.565 96.2 891.917 96.664C892.269 97.112 892.445 97.688 892.445 98.392C892.445 99.352 892.149 100.152 891.557 100.792C890.981 101.432 890.197 101.904 889.205 102.208C888.229 102.512 887.149 102.664 885.965 102.664H884.957ZM896.788 82.432C896.276 82.432 895.852 82.288 895.516 82C895.196 81.696 895.036 81.296 895.036 80.8C895.036 80.288 895.196 79.888 895.516 79.6C895.852 79.312 896.276 79.168 896.788 79.168C897.316 79.168 897.74 79.312 898.06 79.6C898.396 79.888 898.564 80.288 898.564 80.8C898.564 81.296 898.396 81.696 898.06 82C897.74 82.288 897.316 82.432 896.788 82.432ZM898.324 84.76V94.96C898.324 95.296 898.492 95.52 898.828 95.632C899.164 95.728 899.58 95.776 900.076 95.776H900.1V97H893.668V95.776H893.692C894.204 95.776 894.62 95.728 894.94 95.632C895.276 95.52 895.444 95.296 895.444 94.96V87.064C895.444 86.744 895.316 86.528 895.06 86.416C894.82 86.288 894.436 86.176 893.908 86.08L893.644 86.032V84.76H898.324ZM914.601 90.88C914.601 92.128 914.329 93.232 913.785 94.192C913.241 95.152 912.481 95.904 911.505 96.448C910.529 96.976 909.393 97.24 908.097 97.24C906.817 97.24 905.689 96.976 904.713 96.448C903.737 95.904 902.969 95.152 902.409 94.192C901.865 93.232 901.593 92.128 901.593 90.88C901.593 89.952 901.745 89.104 902.049 88.336C902.369 87.552 902.817 86.88 903.393 86.32C903.985 85.744 904.673 85.304 905.457 85C906.257 84.68 907.137 84.52 908.097 84.52C909.057 84.52 909.929 84.68 910.713 85C911.513 85.304 912.201 85.744 912.777 86.32C913.369 86.88 913.817 87.552 914.121 88.336C914.441 89.104 914.601 89.952 914.601 90.88ZM904.593 90.88C904.593 91.872 904.737 92.736 905.025 93.472C905.313 94.192 905.713 94.752 906.225 95.152C906.753 95.536 907.377 95.728 908.097 95.728C908.833 95.728 909.457 95.536 909.969 95.152C910.497 94.752 910.897 94.192 911.169 93.472C911.457 92.736 911.601 91.872 911.601 90.88C911.601 89.872 911.457 89.008 911.169 88.288C910.897 87.568 910.497 87.016 909.969 86.632C909.457 86.248 908.833 86.056 908.097 86.056C907.377 86.056 906.753 86.248 906.225 86.632C905.713 87.016 905.313 87.568 905.025 88.288C904.737 89.008 904.593 89.872 904.593 90.88ZM920.651 79.48H917.387C917.387 80.328 917.411 81.128 917.459 81.88C917.507 82.616 917.571 83.344 917.651 84.064C917.731 84.768 917.803 85.496 917.867 86.248C917.947 87 918.011 87.816 918.059 88.696C918.123 89.56 918.155 90.544 918.155 91.648H919.883C919.883 90.544 919.907 89.56 919.955 88.696C920.003 87.816 920.067 87 920.147 86.248C920.227 85.48 920.307 84.744 920.387 84.04C920.467 83.336 920.531 82.616 920.579 81.88C920.627 81.128 920.651 80.328 920.651 79.48ZM918.995 97.192C918.419 97.192 917.955 97.032 917.603 96.712C917.267 96.376 917.099 95.952 917.099 95.44C917.099 94.896 917.267 94.464 917.603 94.144C917.955 93.824 918.419 93.664 918.995 93.664C919.587 93.664 920.059 93.824 920.411 94.144C920.763 94.464 920.939 94.896 920.939 95.44C920.939 95.952 920.763 96.376 920.411 96.712C920.059 97.032 919.587 97.192 918.995 97.192ZM926.725 79.96H924.133C924.133 80.44 924.157 80.872 924.205 81.256C924.269 81.64 924.333 82.032 924.397 82.432C924.477 82.832 924.541 83.296 924.589 83.824C924.637 84.352 924.661 85 924.661 85.768H926.197C926.197 85 926.221 84.352 926.269 83.824C926.317 83.296 926.381 82.832 926.461 82.432C926.541 82.016 926.605 81.624 926.653 81.256C926.701 80.872 926.725 80.44 926.725 79.96ZM930.301 79.96H927.709C927.709 80.44 927.733 80.872 927.781 81.256C927.845 81.64 927.909 82.032 927.973 82.432C928.053 82.832 928.117 83.296 928.165 83.824C928.213 84.352 928.237 85 928.237 85.768H929.773C929.773 85 929.797 84.352 929.845 83.824C929.893 83.296 929.957 82.832 930.037 82.432C930.117 82.016 930.181 81.624 930.229 81.256C930.277 80.872 930.301 80.44 930.301 79.96Z" fill="white"/>
<defs>
<filter id="filter0_d_2120_33" x="0" y="0" width="579" height="189" filterUnits="userSpaceOnUse" color-interpolation-filters="sRGB">
<feFlood flood-opacity="0" result="BackgroundImageFix"/>
<feColorMatrix in="SourceAlpha" type="matrix" values="0 0 0 0 0 0 0 0 0 0 0 0 0 0 0 0 0 0 127 0" result="hardAlpha"/>
<feOffset dy="4"/>
<feGaussianBlur stdDeviation="28"/>
<feComposite in2="hardAlpha" operator="out"/>
<feColorMatrix type="matrix" values="0 0 0 0 0 0 0 0 0 0 0 0 0 0 0 0 0 0 0.25 0"/>
<feBlend mode="normal" in2="BackgroundImageFix" result="effect1_dropShadow_2120_33"/>
<feBlend mode="normal" in="SourceGraphic" in2="effect1_dropShadow_2120_33" result="shape"/>
</filter>
<filter id="filter1_d_2120_33" x="346" y="0" width="686" height="189" filterUnits="userSpaceOnUse" color-interpolation-filters="sRGB">
<feFlood flood-opacity="0" result="BackgroundImageFix"/>
<feColorMatrix in="SourceAlpha" type="matrix" values="0 0 0 0 0 0 0 0 0 0 0 0 0 0 0 0 0 0 127 0" result="hardAlpha"/>
<feOffset dy="4"/>
<feGaussianBlur stdDeviation="28"/>
<feComposite in2="hardAlpha" operator="out"/>
<feColorMatrix type="matrix" values="0 0 0 0 0 0 0 0 0 0 0 0 0 0 0 0 0 0 0.25 0"/>
<feBlend mode="normal" in2="BackgroundImageFix" result="effect1_dropShadow_2120_33"/>
<feBlend mode="normal" in="SourceGraphic" in2="effect1_dropShadow_2120_33" result="shape"/>
</filter>
</defs>
</svg>
