<svg width="64" height="63" viewBox="0 0 64 63" fill="none" xmlns="http://www.w3.org/2000/svg">
<path d="M32.7054 29.9148C32.7054 29.9148 59.9832 47.6844 49.6041 54.139C37.8403 61.4472 32.7054 29.9148 32.7054 29.9148Z" fill="#ECD7CA"/>
<path d="M32.995 30.7203C32.995 30.7203 42.3439 61.8892 30.273 60.1997C16.5942 58.2835 32.995 30.7203 32.995 30.7203Z" fill="#ECD7CA"/>
<path d="M32.6969 31.5224C32.6969 31.5224 19.7422 61.5134 11.6305 52.4703C2.4368 42.2238 32.6969 31.5224 32.6969 31.5224Z" fill="#ECD7CA"/>
<path d="M31.9535 31.9543C31.9535 31.9543 2.75316 46.7279 2.39633 34.5627C1.99297 20.7845 31.9535 31.9543 31.9535 31.9543Z" fill="#ECD7CA"/>
<path d="M31.1042 31.8086C31.1042 31.8086 -0.669763 24.4521 6.89423 14.8594C15.4644 3.9908 31.1042 31.8086 31.1042 31.8086Z" fill="#ECD7CA"/>
<path d="M30.5585 31.1505C30.5585 31.1505 11.0707 5.11064 23.0168 2.57751C36.5544 -0.292874 30.5585 31.1505 30.5585 31.1505Z" fill="#ECD7CA"/>
<path d="M30.5672 30.295C30.5672 30.295 32.4823 -2.24731 43.2229 3.46426C55.3937 9.93984 30.5672 30.295 30.5672 30.295Z" fill="#ECD7CA"/>
<path d="M31.1154 29.6384C31.1154 29.6384 53.546 5.82227 58.0539 17.1058C63.1611 29.8916 31.1154 29.6384 31.1154 29.6384Z" fill="#ECD7CA"/>
<path d="M31.9629 29.4884C31.9629 29.4884 64.4059 25.541 60.5729 37.1163C56.2299 50.2346 31.9629 29.4884 31.9629 29.4884Z" fill="#ECD7CA"/>
<path d="M37.5547 26.398C37.6963 26.6069 37.8268 26.8233 37.9478 27.0441C38.0684 27.2672 38.1774 27.4942 38.2755 27.7264C38.3737 27.9586 38.4597 28.1971 38.5354 28.4384C38.6102 28.6784 38.6719 28.9232 38.7233 29.1709C38.7746 29.4186 38.8124 29.6673 38.8385 29.92C38.8651 30.1703 38.879 30.423 38.8808 30.6759C38.8816 30.9275 38.8711 31.1805 38.8476 31.4323C38.824 31.684 38.7873 31.9345 38.7403 32.1819C38.6918 32.4302 38.6317 32.6762 38.5603 32.9178C38.4884 33.1616 38.4043 33.3996 38.3076 33.6339C38.2131 33.8687 38.1065 34.0975 37.9886 34.3217C37.8698 34.5446 37.7411 34.762 37.6025 34.9738C37.4616 35.1852 37.3136 35.3892 37.1534 35.5873C36.9937 35.783 36.8255 35.9723 36.6483 36.1514C36.4697 36.3314 36.2832 36.5026 36.0886 36.6651C35.894 36.8275 35.6918 36.9788 35.4817 37.1213C35.273 37.2629 35.0562 37.3956 34.8347 37.5153C34.6118 37.636 34.3837 37.746 34.1503 37.8452C33.917 37.9445 33.6789 38.0307 33.438 38.1067C33.1961 38.1813 32.9504 38.2442 32.7033 38.2959C32.4552 38.3463 32.2056 38.3854 31.9546 38.4134C31.7026 38.4399 31.4506 38.4543 31.1961 38.4561C30.9441 38.4583 30.6919 38.4484 30.4387 38.4249C30.1865 38.4028 29.9371 38.3667 29.6885 38.3198C29.4399 38.2729 29.195 38.2133 28.9524 38.1421C28.7097 38.0708 28.4708 37.9869 28.2375 37.8931C28.0032 37.7979 27.7735 37.6914 27.5494 37.575C27.3257 37.4564 27.1086 37.3292 26.8975 37.1898C26.685 37.0513 26.4818 36.9025 26.2866 36.7442C26.089 36.5855 25.9007 36.4164 25.7213 36.2393C25.5404 36.0631 25.3699 35.878 25.2086 35.6824C25.0469 35.4892 24.8955 35.287 24.7539 35.0781C24.6123 34.8692 24.4804 34.6537 24.3608 34.432C24.2388 34.2098 24.1298 33.9829 24.0331 33.7497C23.934 33.5161 23.8475 33.28 23.7732 33.0377C23.6984 32.7977 23.6344 32.5525 23.5853 32.3052C23.534 32.0575 23.4952 31.8074 23.4687 31.5571C23.4435 31.3058 23.4296 31.053 23.4278 30.8001C23.4261 30.5472 23.4375 30.2956 23.461 30.0438C23.4846 29.7921 23.5199 29.5425 23.5683 29.2942C23.6158 29.0445 23.6755 28.8008 23.7474 28.5569C23.8202 28.3144 23.9043 28.0765 23.9987 27.8418C24.0954 27.6074 24.2021 27.3786 24.32 27.1544C24.4379 26.9301 24.5666 26.7127 24.7061 26.5023C24.8447 26.2904 24.995 26.0868 25.1538 25.8897C25.3135 25.694 25.4817 25.5047 25.6603 25.3247C25.8389 25.1447 26.0254 24.9734 26.22 24.811C26.4132 24.6495 26.6168 24.4973 26.8255 24.3557C27.0356 24.2132 27.251 24.0814 27.4739 23.9608C27.6968 23.8401 27.9249 23.7301 28.1583 23.6309C28.3902 23.5325 28.6283 23.4463 28.8692 23.3703C29.1125 23.2948 29.3558 23.2314 29.6053 23.1801C29.8525 23.1284 30.1021 23.0893 30.354 23.0627C30.606 23.0362 30.858 23.0218 31.1101 23.0196C31.3645 23.0178 31.6167 23.0277 31.8689 23.0498C32.1207 23.0742 32.3706 23.108 32.6201 23.1563C32.8673 23.2041 33.1136 23.2628 33.3562 23.334C33.5988 23.4053 33.8368 23.4878 34.0711 23.583C34.3054 23.6782 34.5351 23.7847 34.7578 23.902C34.9819 24.0183 35.2 24.1469 35.4111 24.2863C35.6212 24.4243 35.8268 24.5736 36.022 24.7318C36.2182 24.8915 36.407 25.0583 36.5873 25.2368C36.7668 25.4139 36.9373 25.5991 37.1 25.7937C37.2603 25.9879 37.4131 26.1891 37.5547 26.398Z" fill="white"/>
</svg>
