<svg width="61" height="61" viewBox="0 0 61 61" fill="none" xmlns="http://www.w3.org/2000/svg">
<g filter="url(#filter0_d_2168_174)">
<rect x="4" width="53" height="53" rx="26.5" fill="white"/>
<path d="M19.3754 24.9749C19.262 25.7952 19.1443 26.6165 19.0309 27.4367C18.957 27.9648 18.8862 28.4918 18.8133 29.0251C18.9101 29.0533 18.9736 29.0773 19.0392 29.0898C20.2925 29.3246 21.5427 29.5719 22.8012 29.7796C23.0895 29.8203 23.3518 29.9257 23.5881 30.0969C23.8244 30.2691 24.0056 30.4861 24.1336 30.7481C24.4032 31.2563 24.6697 31.7656 24.9382 32.2728C25.2901 32.9334 25.6409 33.595 26.0021 34.2786C26.1083 34.2316 26.1967 34.194 26.2821 34.1533C27.4094 33.6232 28.5378 33.0983 29.662 32.5598C29.9181 32.4283 30.1898 32.3636 30.4771 32.3646C30.7644 32.3667 31.035 32.4345 31.289 32.5692C32.3966 33.117 33.5083 33.6566 34.6201 34.1982C34.694 34.2347 34.7731 34.2629 34.8543 34.2973C34.9126 34.1951 34.9636 34.1126 35.0115 34.0271C35.6058 32.9542 36.2012 31.8804 36.7946 30.8065C36.9226 30.5581 37.0985 30.3526 37.3234 30.1887C37.5493 30.0249 37.7991 29.9205 38.0739 29.8756C38.8015 29.7431 39.5333 29.6314 40.263 29.5104C40.8355 29.4144 41.408 29.3173 41.9972 29.2171C41.9837 29.0804 41.9764 28.975 41.9639 28.8696C41.8171 27.6392 41.6714 26.413 41.5215 25.1847C41.4799 24.9092 41.5038 24.6399 41.5944 24.3769C41.6849 24.1139 41.8307 23.8864 42.0326 23.6955C42.3074 23.4189 42.576 23.1371 42.8477 22.8564L44.8015 20.835C44.7255 20.7462 44.6631 20.6732 44.5975 20.6033C43.7512 19.686 42.9049 18.7707 42.0576 17.8555C41.8765 17.6708 41.7464 17.4558 41.6662 17.2105C41.585 16.9653 41.5632 16.7148 41.6006 16.4592C41.7318 15.4552 41.8838 14.4534 42.0253 13.4494C42.0774 13.0883 42.1232 12.7262 42.1721 12.363C42.0857 12.338 42.0409 12.3223 41.9962 12.3129C40.7366 12.0625 39.4771 11.8005 38.2144 11.5699C37.9459 11.5261 37.7012 11.4228 37.4816 11.262C37.262 11.1003 37.0902 10.8978 36.9674 10.6547C36.7592 10.28 36.5656 9.89702 36.3657 9.5182C35.9379 8.71045 35.509 7.90375 35.0635 7.06575C33.8154 7.63764 32.6037 8.18761 31.3952 8.75115C31.1433 8.87952 30.8768 8.94318 30.5937 8.94109C30.3116 8.939 30.0461 8.87326 29.7963 8.74176C28.8105 8.25336 27.8206 7.77435 26.8317 7.29325C26.6329 7.19515 26.4341 7.10123 26.2196 7C26.1457 7.12941 26.0822 7.2369 26.0219 7.34647C25.4452 8.3859 24.8633 9.42219 24.2939 10.4647C24.1617 10.7256 23.9774 10.9427 23.7401 11.1149C23.5038 11.286 23.2405 11.3935 22.9511 11.4384C21.7436 11.6482 20.5382 11.8726 19.3276 12.0698C19.0392 12.1168 18.9695 12.218 19.008 12.5029C19.1662 13.6905 19.2828 14.8833 19.4504 16.0699C19.5066 16.3778 19.4868 16.6794 19.391 16.9768C19.2963 17.2742 19.136 17.5309 18.9122 17.748C18.0753 18.6069 17.2561 19.4804 16.4296 20.3476C16.364 20.4175 16.3026 20.4895 16.2328 20.5678C16.3088 20.6555 16.3702 20.7306 16.4348 20.8016C17.2613 21.7095 18.0888 22.6174 18.9164 23.5233C19.1027 23.7163 19.2359 23.9397 19.3171 24.1953C19.3983 24.45 19.4171 24.7098 19.3754 24.9749ZM30.4719 11.8809C30.7592 11.8809 31.0465 11.8945 31.3317 11.9226C31.618 11.9508 31.9022 11.9926 32.1842 12.0479C32.4653 12.1042 32.7443 12.1741 33.0191 12.2576C33.2939 12.3411 33.5645 12.4371 33.83 12.5467C34.0954 12.6573 34.3546 12.7794 34.6076 12.9151C34.8616 13.0508 35.1072 13.1979 35.3466 13.3576C35.5861 13.5173 35.8161 13.6884 36.0378 13.871C36.2606 14.0537 36.4729 14.2457 36.6759 14.4492C36.8799 14.6527 37.0725 14.8656 37.2547 15.0879C37.4368 15.3102 37.6076 15.5408 37.7679 15.7798C37.9271 16.0188 38.0749 16.265 38.2103 16.5186C38.3456 16.7722 38.4684 17.0321 38.5788 17.2972C38.6881 17.5633 38.7849 17.8336 38.8681 18.1091C38.9514 18.3835 39.0212 18.6622 39.0774 18.944C39.1336 19.2268 39.1763 19.5106 39.2044 19.7966C39.2325 20.0825 39.246 20.3695 39.246 20.6575C39.246 20.9445 39.2325 21.2315 39.2033 21.5175C39.1752 21.8045 39.1336 22.0883 39.0774 22.3701C39.0212 22.6519 38.9514 22.9305 38.8681 23.206C38.7849 23.4805 38.6881 23.7518 38.5777 24.0169C38.4674 24.283 38.3446 24.5418 38.2092 24.7954C38.0739 25.049 37.9261 25.2953 37.7668 25.5343C37.6065 25.7733 37.4358 26.0039 37.2536 26.2262C37.0715 26.4485 36.8789 26.6614 36.6749 26.8649C36.4719 27.0684 36.2595 27.2604 36.0368 27.443C35.8151 27.6256 35.584 27.7957 35.3456 27.9554C35.1062 28.1151 34.8605 28.2633 34.6065 28.3979C34.3536 28.5336 34.0933 28.6567 33.8279 28.7663C33.5625 28.8759 33.2929 28.9729 33.017 29.0564C32.7422 29.1399 32.4643 29.2088 32.1822 29.2651C31.9001 29.3204 31.6169 29.3632 31.3307 29.3904C31.0444 29.4185 30.7582 29.4321 30.4709 29.4321C30.1836 29.4321 29.8973 29.4175 29.611 29.3893C29.3248 29.3611 29.0416 29.3183 28.7595 29.262C28.4774 29.2056 28.1995 29.1357 27.9247 29.0522C27.6499 28.9687 27.3793 28.8717 27.1138 28.7611C26.8494 28.6504 26.5902 28.5273 26.3362 28.3916C26.0833 28.256 25.8376 28.1078 25.5982 27.9481C25.3598 27.7884 25.1298 27.6173 24.908 27.4347C24.6853 27.252 24.4729 27.059 24.27 26.8555C24.067 26.6509 23.8754 26.438 23.6933 26.2157C23.5111 25.9935 23.3404 25.7628 23.1811 25.5228C23.0219 25.2838 22.874 25.0375 22.7398 24.7839C22.6044 24.5303 22.4816 24.2705 22.3723 24.0044C22.263 23.7382 22.1662 23.4679 22.0829 23.1924C22.0007 22.9169 21.931 22.6383 21.8747 22.3565C21.8196 22.0747 21.7779 21.7909 21.7498 21.5039C21.7228 21.218 21.7082 20.931 21.7092 20.644C21.7103 20.357 21.7248 20.07 21.754 19.7851C21.7821 19.4992 21.8248 19.2163 21.881 18.9346C21.9382 18.6538 22.008 18.3752 22.0923 18.1007C22.1756 17.8263 22.2724 17.557 22.3827 17.2919C22.4931 17.0269 22.6159 16.7681 22.7512 16.5155C22.8865 16.263 23.0344 16.0167 23.1936 15.7787C23.3529 15.5397 23.5236 15.3102 23.7058 15.0879C23.8879 14.8666 24.0805 14.6548 24.2835 14.4513C24.4865 14.2488 24.6988 14.0568 24.9195 13.8742C25.1412 13.6926 25.3713 13.5214 25.6096 13.3618C25.848 13.2031 26.0937 13.0549 26.3466 12.9203C26.5996 12.7847 26.8588 12.6615 27.1232 12.5519C27.3876 12.4424 27.6572 12.3453 27.932 12.2618C28.2058 12.1783 28.4837 12.1084 28.7647 12.052C29.0458 11.9957 29.3289 11.9529 29.6142 11.9247C29.8994 11.8955 30.1856 11.8809 30.4719 11.8809ZM30.4209 27.6862C30.6509 27.6872 30.881 27.6778 31.11 27.6569C31.339 27.6361 31.567 27.6048 31.7929 27.5609C32.0187 27.5181 32.2425 27.4639 32.4632 27.3992C32.6839 27.3334 32.9015 27.2572 33.1149 27.1706C33.3282 27.084 33.5364 26.988 33.7405 26.8805C33.9445 26.773 34.1423 26.6572 34.3348 26.5299C34.5264 26.4036 34.7127 26.2679 34.8917 26.1229C35.0708 25.9778 35.2415 25.8254 35.406 25.6637C35.5694 25.5019 35.7255 25.3318 35.8723 25.1554C36.0201 24.978 36.1586 24.7944 36.2876 24.6034C36.4167 24.4134 36.5364 24.2162 36.6468 24.0137C36.7561 23.8113 36.856 23.6047 36.9455 23.3918C37.035 23.1799 37.1142 22.9639 37.1829 22.7437C37.2516 22.5235 37.3088 22.3012 37.3557 22.0758C37.4015 21.8504 37.4368 21.6229 37.4608 21.3933C37.4858 21.1647 37.4983 20.9341 37.4993 20.7045C37.5014 20.4739 37.492 20.2443 37.4702 20.0147C37.4493 19.7851 37.4171 19.5576 37.3744 19.3311C37.3307 19.1047 37.2765 18.8813 37.211 18.6601C37.1454 18.4389 37.0694 18.2218 36.983 18.0089C36.8966 17.795 36.7998 17.5862 36.6926 17.3827C36.5854 17.1792 36.4688 16.981 36.3418 16.7879C36.2148 16.5959 36.0795 16.4101 35.9348 16.2306C35.7901 16.0522 35.636 15.881 35.4747 15.7161C35.3133 15.5523 35.1436 15.3968 34.9667 15.2496C34.7897 15.1025 34.6055 14.9637 34.415 14.8353C34.2245 14.7059 34.0278 14.5859 33.8258 14.4763C33.6239 14.3667 33.4167 14.2666 33.2044 14.1768C32.992 14.0881 32.7765 14.0088 32.5559 13.941C32.3362 13.8721 32.1135 13.8147 31.8886 13.7688C31.6627 13.7218 31.4358 13.6874 31.2068 13.6634C30.9778 13.6394 30.7477 13.6268 30.5177 13.6247C30.2876 13.6237 30.0586 13.6331 29.8286 13.655C29.5996 13.6759 29.3716 13.7082 29.1457 13.7521C28.9198 13.7959 28.6971 13.8502 28.4764 13.9159C28.2557 13.9806 28.0382 14.0578 27.8248 14.1445C27.6124 14.2311 27.4032 14.3281 27.2002 14.4356C26.9962 14.5431 26.7984 14.66 26.6058 14.7873C26.4143 14.9136 26.229 15.0503 26.05 15.1954C25.8709 15.3404 25.7002 15.4938 25.5368 15.6556C25.3723 15.8173 25.2172 15.9875 25.0704 16.1649C24.9237 16.3423 24.7852 16.5259 24.6561 16.7169C24.5271 16.9079 24.4084 17.1041 24.2981 17.3066C24.1888 17.5101 24.0888 17.7167 24.0003 17.9296C23.9108 18.1414 23.8317 18.3575 23.7641 18.5777C23.6964 18.7979 23.6391 19.0212 23.5933 19.2466C23.5465 19.472 23.5121 19.6995 23.4882 19.9291C23.4643 20.1587 23.4518 20.3883 23.4507 20.6179C23.4497 20.8485 23.4611 21.0771 23.483 21.3056C23.5049 21.5342 23.5382 21.7617 23.5819 21.9871C23.6266 22.2125 23.6808 22.4348 23.7474 22.655C23.813 22.8752 23.889 23.0912 23.9764 23.3041C24.0638 23.516 24.1607 23.7236 24.2679 23.9271C24.3751 24.1296 24.4917 24.3279 24.6187 24.5188C24.7446 24.7109 24.8799 24.8956 25.0246 25.074C25.1693 25.2525 25.3223 25.4236 25.4837 25.5864C25.645 25.7503 25.8137 25.9058 25.9896 26.0529C26.1655 26.199 26.3487 26.3378 26.5392 26.4662C26.7287 26.5956 26.9244 26.7156 27.1263 26.8252C27.3272 26.9348 27.5333 27.035 27.7446 27.1247C27.9559 27.2145 28.1714 27.2938 28.39 27.3626C28.6086 27.4315 28.8303 27.4889 29.0552 27.5359C29.28 27.5839 29.5059 27.6194 29.7349 27.6444C29.9629 27.6695 30.1908 27.683 30.4209 27.6862ZM26.4643 20.3706C26.5101 20.3236 26.5611 20.2818 26.6162 20.2453C26.6714 20.2088 26.7287 20.1785 26.7901 20.1545C26.8515 20.1305 26.915 20.1128 26.9795 20.1013C27.0441 20.0898 27.1096 20.0857 27.1752 20.0877C27.2408 20.0898 27.3064 20.0982 27.3699 20.1138C27.4344 20.1295 27.4958 20.1514 27.5552 20.1806C27.6145 20.2088 27.6707 20.2422 27.7228 20.2829C27.7759 20.3225 27.8237 20.3674 27.8664 20.4175C28.2765 20.8203 28.6731 21.2326 29.0999 21.6657L31.6721 19.0859C32.1322 18.6236 32.5933 18.1623 33.0545 17.701C33.0972 17.6499 33.144 17.604 33.196 17.5633C33.2481 17.5215 33.3043 17.4871 33.3636 17.4568C33.423 17.4276 33.4844 17.4047 33.5489 17.388C33.6124 17.3713 33.678 17.3608 33.7446 17.3587C33.8102 17.3556 33.8758 17.3587 33.9414 17.3692C34.0069 17.3807 34.0704 17.3973 34.1329 17.4214C34.1943 17.4454 34.2526 17.4756 34.3088 17.5111C34.364 17.5476 34.415 17.5894 34.4629 17.6363C34.5097 17.6823 34.5514 17.7344 34.5878 17.7897C34.6232 17.8451 34.6534 17.9035 34.6783 17.9651C34.7023 18.0266 34.72 18.0903 34.7304 18.156C34.7408 18.2218 34.745 18.2875 34.7429 18.3533C34.7398 18.4201 34.7304 18.4848 34.7137 18.5495C34.6971 18.6142 34.6742 18.6758 34.645 18.7352C34.6159 18.7947 34.5805 18.85 34.5399 18.9022C34.4983 18.9544 34.4525 19.0024 34.4025 19.0452C32.8796 20.5761 31.3525 22.1061 29.8223 23.6328C29.7776 23.684 29.7287 23.7299 29.6745 23.7706C29.6204 23.8113 29.5632 23.8447 29.5017 23.8729C29.4403 23.901 29.3768 23.923 29.3112 23.9365C29.2446 23.9511 29.178 23.9584 29.1103 23.9584C29.0427 23.9584 28.9761 23.9511 28.9105 23.9365C28.8439 23.923 28.7804 23.901 28.7189 23.8729C28.6575 23.8447 28.6003 23.8113 28.5461 23.7706C28.492 23.7299 28.4431 23.684 28.3983 23.6328C27.7686 23.0098 27.144 22.3826 26.5246 21.7523C26.4757 21.7095 26.433 21.6625 26.3935 21.6103C26.355 21.5592 26.3217 21.5039 26.2946 21.4455C26.2665 21.3881 26.2446 21.3275 26.229 21.2649C26.2134 21.2023 26.204 21.1386 26.2019 21.0739C26.1988 21.0092 26.2019 20.9456 26.2124 20.8819C26.2228 20.8183 26.2384 20.7556 26.2613 20.6951C26.2842 20.6346 26.3123 20.5772 26.3466 20.5229C26.381 20.4676 26.4195 20.4175 26.4643 20.3706ZM46.2942 40.4848C46.5191 40.8804 46.7418 41.278 47 41.7351H46.5899C44.7599 41.7351 42.9289 41.7413 41.0978 41.7309C40.999 41.7236 40.9001 41.7309 40.8033 41.7528C40.7054 41.7758 40.6138 41.8112 40.5274 41.8613C40.441 41.9114 40.364 41.973 40.2963 42.046C40.2276 42.1191 40.1724 42.2005 40.1287 42.2902C39.3178 43.7555 38.4892 45.2123 37.669 46.6713C37.6169 46.7631 37.5618 46.8529 37.4754 47L31.8293 37.1944C31.6783 36.9825 31.4899 36.8124 31.2641 36.684C31.0382 36.5557 30.7956 36.4805 30.5364 36.4586C30.2346 36.4545 29.9483 36.5212 29.6787 36.658C29.4091 36.7957 29.1874 36.9888 29.0135 37.2372C26.2238 42.0554 25.1339 43.9788 24.7967 44.6123C24.703 44.7886 24.2575 45.5557 23.661 46.5888C23.6142 46.6702 23.5611 46.7485 23.4924 46.8591L21.9247 44.1499C21.5635 43.5259 21.1981 42.9049 20.8432 42.2777C20.7994 42.1901 20.7432 42.1118 20.6766 42.0408C20.609 41.9699 20.534 41.9093 20.4486 41.8613C20.3643 41.8123 20.2748 41.7768 20.179 41.7549C20.0843 41.733 19.9885 41.7246 19.8907 41.7309C18.0503 41.7413 16.2099 41.7351 14.3695 41.734H14C14.0583 41.6203 14.0947 41.5378 14.1384 41.4585C16.0579 38.0585 17.9764 34.6584 19.8928 31.2584C19.9084 31.2166 19.9313 31.1791 19.9615 31.1457C19.9917 31.1123 20.0271 31.0872 20.0677 31.0685C20.1093 31.0497 20.152 31.0392 20.1967 31.0372C20.2415 31.0351 20.2852 31.0424 20.3269 31.058C20.9837 31.1926 21.6499 31.2876 22.3067 31.4222C22.4535 31.4609 22.568 31.5443 22.6482 31.6727C23.2498 32.7528 23.8369 33.8423 24.424 34.9298C24.4729 35.0425 24.5323 35.1489 24.6031 35.2491C24.6738 35.3482 24.755 35.4401 24.8446 35.5236C24.9351 35.6071 25.0319 35.6801 25.1371 35.7427C25.2432 35.8053 25.3536 35.8565 25.4691 35.8961C25.5857 35.9358 25.7044 35.9629 25.8251 35.9775C25.9469 35.9921 26.0687 35.9942 26.1915 35.9828C26.3133 35.9723 26.433 35.9494 26.5496 35.9128C26.6672 35.8773 26.7797 35.8304 26.8869 35.7709C27.5344 35.4829 28.084 35.2731 28.543 35.008C29.001 34.744 29.4924 34.5614 29.9483 34.2984C30.0857 34.2149 30.2346 34.1721 30.3949 34.17C30.5062 34.17 30.6114 34.194 30.7124 34.241C31.7835 34.7743 32.8723 35.2721 33.933 35.8283C34.0434 35.8878 34.1589 35.9358 34.2786 35.9723C34.3983 36.0088 34.5201 36.0328 34.645 36.0443C34.77 36.0568 34.8938 36.0558 35.0187 36.0422C35.1426 36.0297 35.2644 36.0036 35.3841 35.9661C35.5038 35.9285 35.6183 35.8794 35.7276 35.8189C35.8369 35.7584 35.9389 35.6874 36.0347 35.606C36.1294 35.5246 36.2158 35.4349 36.2929 35.3357C36.3699 35.2376 36.4375 35.1322 36.4927 35.0206C37.0319 33.9519 37.6513 32.9229 38.2228 31.871C38.2613 31.7875 38.3175 31.7197 38.3924 31.6654C38.4674 31.6122 38.5496 31.5798 38.6412 31.5694C39.3439 31.4525 40.0413 31.3273 40.7377 31.1864C40.7752 31.1718 40.8137 31.1655 40.8532 31.1666C40.8938 31.1676 40.9323 31.177 40.9688 31.1937C41.0052 31.2104 41.0364 31.2323 41.0645 31.2615C41.0916 31.2907 41.1124 31.3241 41.126 31.3617C42.8404 34.4059 44.5632 37.4459 46.2942 40.4848Z" fill="#3A2215"/>
</g>
<defs>
<filter id="filter0_d_2168_174" x="0" y="0" width="61" height="61" filterUnits="userSpaceOnUse" color-interpolation-filters="sRGB">
<feFlood flood-opacity="0" result="BackgroundImageFix"/>
<feColorMatrix in="SourceAlpha" type="matrix" values="0 0 0 0 0 0 0 0 0 0 0 0 0 0 0 0 0 0 127 0" result="hardAlpha"/>
<feOffset dy="4"/>
<feGaussianBlur stdDeviation="2"/>
<feComposite in2="hardAlpha" operator="out"/>
<feColorMatrix type="matrix" values="0 0 0 0 0 0 0 0 0 0 0 0 0 0 0 0 0 0 0.25 0"/>
<feBlend mode="normal" in2="BackgroundImageFix" result="effect1_dropShadow_2168_174"/>
<feBlend mode="normal" in="SourceGraphic" in2="effect1_dropShadow_2168_174" result="shape"/>
</filter>
</defs>
</svg>
